<svg width="62" height="62" viewBox="0 0 62 62" fill="none" xmlns="http://www.w3.org/2000/svg">
<g clipPath="url(#clip0)">
<path d="M26.2201 21.261H18.756C18.0872 21.261 17.545 21.8032 17.545 22.4719V33.1779C17.545 33.8466 18.0872 34.3889 18.756 34.3889H26.2201C26.8889 34.3889 27.431 33.8466 27.431 33.1779V22.4719C27.431 21.8032 26.8889 21.261 26.2201 21.261ZM25.0091 31.967H19.9669V23.6829H25.0091V31.967Z" fill="#040D21"/>
<path d="M30.5317 22.4719C30.5317 23.1406 31.0739 23.6829 31.7427 23.6829H41.6422C42.3109 23.6829 42.8531 23.1406 42.8531 22.4719C42.8531 21.8032 42.3109 21.261 41.6422 21.261H31.7427C31.0739 21.261 30.5317 21.8032 30.5317 22.4719Z" fill="#040D21"/>
<path d="M41.6422 26.6157H31.7427C31.0739 26.6157 30.5317 27.158 30.5317 27.8267C30.5317 28.4953 31.0739 29.0376 31.7427 29.0376H41.6422C42.3109 29.0376 42.8531 28.4953 42.8531 27.8267C42.8531 27.158 42.3109 26.6157 41.6422 26.6157Z" fill="#040D21"/>
<path d="M41.6422 31.967H31.7427C31.0739 31.967 30.5317 32.5093 30.5317 33.178C30.5317 33.8467 31.0739 34.3889 31.7427 34.3889H41.6422C42.3109 34.3889 42.8531 33.8467 42.8531 33.178C42.8531 32.5093 42.3109 31.967 41.6422 31.967Z" fill="#040D21"/>
<path d="M56.3611 7.05383H47.3816L39.9626 0.314602C39.7398 0.112133 39.4494 0 39.1484 0H14.8798C13.5822 0 12.5265 1.05606 12.5265 2.35394V7.05383H5.63885C2.83008 7.05383 0.544922 9.3402 0.544922 12.1504V42.4767C0.544922 45.2869 2.83008 47.5733 5.63885 47.5733H20.1179L19.0364 52.6068H17.7612C15.1718 52.6068 13.0652 54.7129 13.0652 57.3017V60.7891C13.0652 61.4577 13.6073 62 14.2761 62H46.5062C47.1749 62 47.7171 61.4577 47.7171 60.7891V57.3016C47.7171 54.7128 45.612 52.6066 43.0246 52.6066H41.7462L40.667 47.5731H56.3611C59.1699 47.5731 61.4551 45.2868 61.4551 42.4765V12.1504C61.4551 9.3402 59.1699 7.05383 56.3611 7.05383ZM56.3611 9.47571C57.8346 9.47571 59.0332 10.6755 59.0332 12.1504V37.3423H49.4735V9.49012C49.4735 9.48527 49.4727 9.48055 49.4727 9.47571H56.3611ZM40.3593 3.94693L45.1285 8.27918H40.3593V3.94693ZM5.63885 9.47571H12.5265V37.3423H2.9668V12.1504C2.9668 10.6755 4.1655 9.47571 5.63885 9.47571ZM45.2952 57.3016V59.5781H15.487V57.3016C15.487 56.0481 16.5073 55.0285 17.7612 55.0285H20.0116C20.013 55.0285 20.0146 55.0288 20.0161 55.0288C20.0179 55.0288 20.0197 55.0285 20.0215 55.0285H40.7609C40.7627 55.0285 40.7645 55.0288 40.7663 55.0288C40.7678 55.0288 40.7694 55.0285 40.7708 55.0285H43.0246C44.2766 55.0286 45.2952 56.0482 45.2952 57.3016ZM39.2694 52.6068H21.5136L22.5951 47.5733H38.1902L39.2694 52.6068ZM56.3611 45.1513H39.1698C39.1639 45.1513 39.158 45.1511 39.152 45.1513H21.6293C21.6277 45.1513 21.6263 45.1513 21.6247 45.1513H5.63885C4.1655 45.1513 2.9668 43.9515 2.9668 42.4765V39.7642H25.5648C26.2336 39.7642 26.7758 39.2219 26.7758 38.5532C26.7758 37.8845 26.2336 37.3423 25.5648 37.3423H14.9484V2.42188H37.9375V8.3436C37.9375 9.64342 38.9946 10.7011 40.2941 10.7011H47.0516V37.3423H36.4352C35.7665 37.3423 35.2242 37.8845 35.2242 38.5532C35.2242 39.2219 35.7665 39.7642 36.4352 39.7642H59.0332V42.4765C59.0332 43.9515 57.8346 45.1513 56.3611 45.1513Z" fill="#040D21"/>
<path d="M18.9377 7.62573H32.4664C33.1351 7.62573 33.6774 7.08347 33.6774 6.41479C33.6774 5.74612 33.1351 5.20386 32.4664 5.20386H18.9377C18.2689 5.20386 17.7268 5.74612 17.7268 6.41479C17.7268 7.08347 18.2689 7.62573 18.9377 7.62573Z" fill="#040D21"/>
<path d="M18.9377 12.9768H32.4664C33.1351 12.9768 33.6774 12.4345 33.6774 11.7659C33.6774 11.0972 33.1351 10.5549 32.4664 10.5549H18.9377C18.2689 10.5549 17.7268 11.0972 17.7268 11.7659C17.7268 12.4345 18.2689 12.9768 18.9377 12.9768Z" fill="#040D21"/>
<path d="M18.9377 18.3315H40.4245C41.0932 18.3315 41.6354 17.7893 41.6354 17.1206C41.6354 16.4519 41.0932 15.9097 40.4245 15.9097H18.9377C18.2689 15.9097 17.7268 16.4519 17.7268 17.1206C17.7268 17.7893 18.2689 18.3315 18.9377 18.3315Z" fill="#040D21"/>
<path d="M31.0017 37.3423C30.3329 37.3423 29.7908 37.8845 29.7908 38.5532C29.7908 39.2219 30.3329 39.7642 31.0017 39.7642H31.0051C31.6739 39.7642 32.2143 39.2219 32.2143 38.5532C32.2143 37.8845 31.6705 37.3423 31.0017 37.3423Z" fill="#040D21"/>
</g>
<defs>
<clipPath id="clip0">
<rect width="62" height="62" fill="white"/>
</clipPath>
</defs>
</svg>
