<svg width="62" height="62" viewBox="0 0 62 62" fill="none" xmlns="http://www.w3.org/2000/svg">
<path d="M20.8887 52.918C18.3847 52.918 16.3477 54.955 16.3477 57.459C16.3477 59.963 18.3847 62 20.8887 62C23.3926 62 25.4297 59.963 25.4297 57.459C25.4297 54.955 23.3926 52.918 20.8887 52.918ZM20.8887 60.1836C19.3864 60.1836 18.1641 58.9613 18.1641 57.459C18.1641 55.9567 19.3864 54.7344 20.8887 54.7344C22.391 54.7344 23.6133 55.9567 23.6133 57.459C23.6133 58.9613 22.391 60.1836 20.8887 60.1836Z" fill="#040D21"/>
<path d="M20.8887 58.3672C21.3903 58.3672 21.7969 57.9606 21.7969 57.459C21.7969 56.9574 21.3903 56.5508 20.8887 56.5508C20.3871 56.5508 19.9805 56.9574 19.9805 57.459C19.9805 57.9606 20.3871 58.3672 20.8887 58.3672Z" fill="#040D21"/>
<path d="M52.0098 58.3672C52.5114 58.3672 52.918 57.9606 52.918 57.459C52.918 56.9574 52.5114 56.5508 52.0098 56.5508C51.5082 56.5508 51.1016 56.9574 51.1016 57.459C51.1016 57.9606 51.5082 58.3672 52.0098 58.3672Z" fill="#040D21"/>
<path d="M52.0098 52.918C49.5058 52.918 47.4688 54.955 47.4688 57.459C47.4688 59.963 49.5058 62 52.0098 62C54.5137 62 56.5508 59.963 56.5508 57.459C56.5508 54.955 54.5137 52.918 52.0098 52.918ZM52.0098 60.1836C50.5075 60.1836 49.2852 58.9613 49.2852 57.459C49.2852 55.9567 50.5075 54.7344 52.0098 54.7344C53.5121 54.7344 54.7344 55.9567 54.7344 57.459C54.7344 58.9613 53.5121 60.1836 52.0098 60.1836Z" fill="#040D21"/>
<path d="M14.997 43.9515L21.6077 40.2031H36.4492C38.6421 40.2031 40.477 38.6405 40.8991 36.5703H50.3577C53.2642 36.5703 55.7969 34.6037 56.5169 31.788L61.9717 10.4575C62.041 10.1857 61.9811 9.89711 61.809 9.67551C61.637 9.45391 61.3722 9.32422 61.0918 9.32422H16.5005L16.0373 7.51326C14.9075 3.08959 10.927 0 6.35742 0H2.72461C1.22232 0 0 1.22232 0 2.72461C0 4.2269 1.22232 5.44922 2.72461 5.44922H6.35742C8.43503 5.44922 10.2444 6.85269 10.7577 8.86249L17.7332 36.1358L12.3106 39.2104C10.3192 40.3378 9.08203 42.4583 9.08203 44.7441C9.08203 48.2496 11.934 51.1016 15.4395 51.1016H55.6426C57.1449 51.1016 58.3672 49.8792 58.3672 48.377C58.3672 46.8747 57.1449 45.6523 55.6426 45.6523H15.4395C14.9386 45.6523 14.5312 45.245 14.5312 44.7441C14.5312 44.4178 14.7095 44.1142 14.997 43.9515ZM48.6607 26.2773H43.0796L43.4201 19.6172H49.6825L48.6607 26.2773ZM51.5201 19.6172H57.7545L56.0513 26.2773H50.4983L51.5201 19.6172ZM48.3819 28.0938L47.3601 34.7539H42.6462L42.9867 28.0938H48.3819ZM41.2608 26.2773H35.6702L35.3295 19.6172H41.6013L41.2608 26.2773ZM43.513 17.8008L43.8535 11.1406H50.9829L49.9611 17.8008H43.513ZM41.6942 17.8008H35.2365L34.8957 11.1406H42.0347L41.6942 17.8008ZM33.4178 17.8008H29.8228C29.3212 17.8008 28.9146 18.2073 28.9146 18.709C28.9146 19.2107 29.3212 19.6172 29.8228 19.6172H33.5106L33.8514 26.2773H28.2704L25.9475 11.1406H33.0769L33.4178 17.8008ZM26.4328 26.2773H20.8364L19.1329 19.6172H25.4107L26.4328 26.2773ZM26.7116 28.0938L27.7337 34.7539H23.0044L21.301 28.0938H26.7116ZM29.5713 34.7539L28.5492 28.0938H33.9444L34.2852 34.7539H29.5713ZM36.104 34.7539L35.7632 28.0938H41.1679L40.8274 34.7539H36.104ZM54.7571 31.338C54.2429 33.3491 52.4337 34.7539 50.3577 34.7539H49.1977L50.2195 28.0938H55.5866L54.7571 31.338ZM58.219 17.8008H51.7988L52.8206 11.1406H59.9222L58.219 17.8008ZM24.1099 11.1406L25.132 17.8008H18.6685L16.9651 11.1406H24.1099ZM6.35742 3.63281H2.72461C2.22377 3.63281 1.81641 3.22545 1.81641 2.72461C1.81641 2.22377 2.22377 1.81641 2.72461 1.81641H6.35742C8.26647 1.81641 10.0488 2.47649 11.4601 3.60302L10.1652 4.898C9.09438 4.09793 7.77059 3.63281 6.35742 3.63281ZM15.4395 47.4688H55.6426C56.1434 47.4688 56.5508 47.8761 56.5508 48.377C56.5508 48.8778 56.1434 49.2852 55.6426 49.2852H15.4395C12.9355 49.2852 10.8984 47.2481 10.8984 44.7441C10.8984 43.1114 11.7825 41.5967 13.2061 40.7907L19.2331 37.3734C19.5896 37.1712 19.7665 36.7553 19.6649 36.3583L12.5175 8.41275C12.3064 7.58616 11.9379 6.83368 11.4503 6.18196L12.7455 4.88674C13.4523 5.77096 13.9834 6.8114 14.2774 7.963L21.4194 35.8872C21.5222 36.2891 21.8843 36.5704 22.2993 36.5704H39.0182C38.6433 37.6276 37.6333 38.3868 36.4492 38.3868H21.3682C21.2111 38.3868 21.0569 38.4275 20.9203 38.505L14.1016 42.3712C13.2463 42.8551 12.7148 43.7645 12.7148 44.7441C12.7148 46.2464 13.9372 47.4688 15.4395 47.4688Z" fill="#040D21"/>
</svg>
