<svg width="60" height="60" viewBox="0 0 60 60" fill="none" xmlns="http://www.w3.org/2000/svg">
<path d="M15.2148 20.0391H4.70707C2.1116 20.0391 0 22.1507 0 24.7461V35.2539C0 37.8493 2.1116 39.9609 4.70707 39.9609H15.2148C17.8103 39.9609 19.9219 37.8493 19.9219 35.2539V24.7461C19.9219 22.1507 17.8103 20.0391 15.2148 20.0391ZM17.5782 35.2539H17.5781C17.5781 36.557 16.5179 37.6172 15.2148 37.6172H4.70707C3.40395 37.6172 2.34375 36.557 2.34375 35.2539V24.7461C2.34375 23.443 3.40395 22.3828 4.70707 22.3828H5.15625V30.0973C5.15742 31.1191 5.47852 32.0906 6.08555 32.9062C6.37734 33.2988 6.72773 33.6422 7.12617 33.9281C7.5293 34.2164 7.97344 34.438 8.44453 34.5867C8.55937 34.6232 8.67891 34.6418 8.79727 34.6418C9.31184 34.6418 9.76066 34.3125 9.91523 33.8228C10.0091 33.5238 9.98203 33.2062 9.83801 32.9286C9.69269 32.6509 9.44895 32.4458 9.15012 32.352C8.16105 32.0391 7.49766 31.1333 7.50012 30.0974V22.3828H15.2149C16.518 22.3828 17.5782 23.443 17.5782 24.7461V35.2539Z" fill="#040D21"/>
<path d="M35.2539 0H24.7461C22.1507 0 20.0391 2.1116 20.0391 4.70707V15.2148C20.0391 17.8103 22.1507 19.9219 24.7461 19.9219H35.2539C37.8493 19.9219 39.9609 17.8103 39.9609 15.2148V4.70707C39.9609 2.1116 37.8493 0 35.2539 0ZM37.6172 15.2148C37.6172 16.5179 36.557 17.5781 35.2539 17.5781H24.7461C23.443 17.5781 22.3828 16.5179 22.3828 15.2148V4.70707C22.3828 3.40395 23.443 2.34375 24.7461 2.34375H25.1953V10.0582C25.1965 11.0801 25.5176 12.0516 26.1246 12.8672C26.4164 13.2598 26.7668 13.6031 27.1652 13.8891C27.5684 14.1773 28.0125 14.3989 28.4836 14.5477C28.5984 14.5841 28.718 14.6027 28.8363 14.6027C29.3509 14.6027 29.7997 14.2734 29.9543 13.7837C30.1488 13.1672 29.8055 12.5074 29.1892 12.3129C28.2001 12 27.5367 11.0943 27.5392 10.0583V2.34375H35.254C36.557 2.34375 37.6172 3.40395 37.6172 4.70707V15.2148Z" fill="#040D21"/>
<path d="M55.2929 20.1562H44.7852C42.1897 20.1562 40.0781 22.2679 40.0781 24.8633V35.3711C40.0781 37.9665 42.1897 40.0781 44.7852 40.0781H55.2929C57.8884 40.0781 60 37.9665 60 35.3711V24.8633C60 22.2679 57.8884 20.1562 55.2929 20.1562ZM57.6564 35.3711H57.6562C57.6562 36.6742 56.5961 37.7344 55.2929 37.7344H44.7852C43.4821 37.7344 42.4219 36.6742 42.4219 35.3711V24.8633C42.4219 23.5602 43.4821 22.5 44.7852 22.5H45.2344V30.2145C45.2355 31.2363 45.5566 32.2078 46.1637 33.0234C46.4555 33.416 46.8059 33.7594 47.2043 34.0453C47.6074 34.3336 48.0516 34.5552 48.5227 34.7039C48.6375 34.7404 48.757 34.759 48.8767 34.759C49.39 34.759 49.8388 34.4297 49.9934 33.9387C50.0872 33.641 50.0602 33.3234 49.9161 33.0458C49.7708 32.7681 49.5271 32.563 49.2282 32.4691C48.2392 32.1563 47.5758 31.2505 47.5782 30.2146V22.5H55.293C56.5962 22.5 57.6564 23.5602 57.6564 24.8633V35.3711Z" fill="#040D21"/>
<path d="M35.2539 40.0781H24.7461C22.1507 40.0781 20.0391 42.1897 20.0391 44.7852V55.2929C20.0391 57.8884 22.1507 60 24.7461 60H35.2539C37.8493 60 39.9609 57.8884 39.9609 55.2929V44.7852C39.9609 42.1897 37.8493 40.0781 35.2539 40.0781ZM37.6173 55.2929H37.6172C37.6172 56.5961 36.557 57.6562 35.2539 57.6562H24.7461C23.443 57.6562 22.3828 56.5961 22.3828 55.2929V44.7852C22.3828 43.4821 23.443 42.4219 24.7461 42.4219H25.1953V50.1363C25.1965 51.1582 25.5176 52.1297 26.1246 52.9453C26.4164 53.3379 26.7668 53.6824 27.1652 53.9672C27.5684 54.2555 28.0125 54.4999 28.4836 54.6486C28.5984 54.6851 28.718 54.7266 28.8363 54.7266H28.8376C29.3509 54.7266 29.7997 54.3744 29.9543 53.8834C30.0482 53.5857 30.0211 53.2567 29.8758 52.9791C29.7318 52.7013 29.4879 52.4848 29.1892 52.3909C28.2001 52.078 27.5367 51.1723 27.5392 50.1363V42.4219H35.254C36.5571 42.4219 37.6173 43.4821 37.6173 44.7852V55.2929Z" fill="#040D21"/>
<path d="M6.32812 17.4608C6.97523 17.4608 7.5 16.936 7.5 16.2889V12.6518C7.5 10.1115 9.5666 8.08581 12.1068 8.08581H13.4599L12.3955 9.12983C11.9379 9.58745 11.9379 10.3193 12.3955 10.7769C12.6244 11.0057 12.9243 11.115 13.2241 11.115C13.524 11.115 13.8239 10.998 14.0528 10.7693L17.1177 7.70307C17.3374 7.48323 17.4609 7.18464 17.4609 6.87374C17.4609 6.56284 17.3374 6.26448 17.1177 6.04475L14.0528 2.9796C13.595 2.5221 12.8532 2.5221 12.3954 2.9796C11.9378 3.43722 11.9378 4.19976 12.3954 4.65737L13.4598 5.74206H12.1068C8.27414 5.74206 5.15625 8.81928 5.15625 12.6518V16.2889C5.15625 16.936 5.68102 17.4608 6.32812 17.4608Z" fill="#040D21"/>
<path d="M43.7401 7.5H47.3772C49.9175 7.5 52.0312 9.59578 52.0312 12.1359V13.4891L50.9433 12.4247C50.4855 11.9672 49.7319 11.9672 49.2741 12.4247C48.8165 12.8823 48.8106 13.6243 49.2683 14.0821L52.3303 17.147C52.5501 17.3667 52.8466 17.4902 53.1575 17.4902C53.4684 17.4902 53.7657 17.3667 53.9854 17.147L57.0499 14.0821C57.5075 13.6245 57.5072 12.8824 57.0495 12.4247C56.5918 11.9672 55.8736 11.9672 55.4158 12.4247L54.375 13.489V12.1359C54.375 8.30332 51.2097 5.15625 47.3772 5.15625H43.7401C43.093 5.15625 42.5682 5.68102 42.5682 6.32812C42.5682 6.97523 43.093 7.5 43.7401 7.5Z" fill="#040D21"/>
<path d="M53.6719 42.7437C53.0248 42.7437 52.5 43.2684 52.5 43.9155V47.5528C52.5 50.0929 50.4043 52.1484 47.8641 52.1484H46.5111L47.5755 51.0896C48.0331 50.632 48.0331 49.8927 47.5755 49.4351C47.118 48.9778 46.3762 48.979 45.9181 49.4365L42.8532 52.502C42.6334 52.7217 42.5099 53.0202 42.5099 53.331C42.5099 53.6417 42.6334 53.94 42.8532 54.1598L45.9181 57.2249C46.147 57.4536 46.4468 57.5681 46.7467 57.5681C47.0466 57.5681 47.3465 57.4537 47.5753 57.225C48.033 56.7674 48.033 56.0198 47.5753 55.5621L46.5109 54.4922H47.8641C51.6966 54.4922 54.8438 51.3853 54.8438 47.5528V43.9155C54.8438 43.2684 54.319 42.7437 53.6719 42.7437Z" fill="#040D21"/>
<path d="M16.2308 52.6171H12.5936C10.0535 52.6171 7.96882 50.6088 7.96882 48.0687V46.7155L9.04214 47.7799C9.271 48.0087 9.57534 48.1232 9.87534 48.1232C10.1753 48.1232 10.4773 48.0087 10.7063 47.7799C11.1639 47.3223 11.1651 46.5803 10.7075 46.1225L7.64315 43.0577C7.18553 42.6003 6.44397 42.6001 5.98612 43.0577L2.9212 46.1225C2.46358 46.5801 2.46358 47.3222 2.92132 47.7799C3.37905 48.2374 4.11194 48.2376 4.56968 47.7799L5.62507 46.7155V48.0687C5.62507 51.9012 8.76112 54.9608 12.5936 54.9608H16.2308C16.8779 54.9608 17.4026 54.436 17.4026 53.7889C17.4026 53.1418 16.8779 52.6171 16.2308 52.6171Z" fill="#040D21"/>
<path d="M13.4684 32.4609C12.8215 32.4609 12.2965 32.9871 12.2965 33.6328C12.2965 34.2785 12.8215 34.8047 13.4684 34.8047C14.1141 34.8047 14.6403 34.2785 14.6403 33.6328C14.6403 32.9871 14.114 32.4609 13.4684 32.4609Z" fill="#040D21"/>
<path d="M33.5075 12.4219C32.8606 12.4219 32.3356 12.948 32.3356 13.5938C32.3356 14.2395 32.8606 14.7656 33.5075 14.7656C34.1532 14.7656 34.6794 14.2395 34.6794 13.5938C34.6794 12.948 34.1531 12.4219 33.5075 12.4219Z" fill="#040D21"/>
<path d="M53.5465 32.5781C52.8997 32.5781 52.3747 33.1043 52.3747 33.75C52.3747 34.3957 52.8997 34.9219 53.5465 34.9219C54.1922 34.9219 54.7184 34.3957 54.7184 33.75C54.7184 33.1043 54.1921 32.5781 53.5465 32.5781Z" fill="#040D21"/>
<path d="M33.5075 52.5C32.8606 52.5 32.3356 53.0262 32.3356 53.6719C32.3356 54.3176 32.8606 54.8438 33.5075 54.8438C34.1532 54.8438 34.6794 54.3176 34.6794 53.6719C34.6794 53.0262 34.1531 52.5 33.5075 52.5Z" fill="#040D21"/>
</svg>
