<svg width="69" height="69" viewBox="0 0 69 69" fill="none" xmlns="http://www.w3.org/2000/svg">
<path d="M31.9655 36.7563H29.0276C27.3767 36.7563 26.0335 38.0996 26.0335 39.7506V45.6586C26.0335 47.3096 27.3767 48.6528 29.0276 48.6528H31.9655C33.6163 48.6528 34.9597 47.3096 34.9597 45.6586V39.7506C34.9597 38.0996 33.6165 36.7563 31.9655 36.7563ZM32.9382 45.6586C32.9382 46.1949 32.5018 46.6313 31.9656 46.6313H29.0277C28.4915 46.6313 28.0551 46.1949 28.0551 45.6586V39.7506C28.0551 39.2142 28.4915 38.7778 29.0277 38.7778H31.9656C32.5018 38.7778 32.9382 39.2142 32.9382 39.7506V45.6586Z" fill="#040D21"/>
<path d="M42.2027 29.02H39.2648C37.6137 29.02 36.2705 30.3632 36.2705 32.0141V45.658C36.2705 47.3091 37.6137 48.6523 39.2648 48.6523H42.2027C43.8535 48.6523 45.1967 47.3091 45.1967 45.658V32.0142C45.1967 30.3632 43.8535 29.02 42.2027 29.02ZM43.1753 45.6582C43.1753 46.1946 42.739 46.6309 42.2027 46.6309H39.2648C38.7285 46.6309 38.292 46.1946 38.292 45.6582V32.0142C38.292 31.478 38.7284 31.0416 39.2648 31.0416H42.2027C42.7389 31.0416 43.1753 31.478 43.1753 32.0142V45.6582Z" fill="#040D21"/>
<path d="M49.502 48.6527H52.4397C54.0907 48.6527 55.4339 47.3095 55.4339 45.6585V36.3583C55.4339 34.7075 54.0907 33.3643 52.4397 33.3643H49.502C47.851 33.3643 46.5078 34.7075 46.5078 36.3583V45.6585C46.5079 47.3095 47.851 48.6527 49.502 48.6527ZM48.5294 36.3583C48.5294 35.8221 48.9657 35.3857 49.5021 35.3857H52.4399C52.9761 35.3857 53.4126 35.8221 53.4126 36.3583V45.6585C53.4126 46.1949 52.9762 46.6313 52.4399 46.6313H49.5021C48.9659 46.6313 48.5294 46.1949 48.5294 45.6585V36.3583Z" fill="#040D21"/>
<path d="M23.1602 37.9136C22.6796 37.6298 22.0598 37.7891 21.7758 38.2696L17.9707 44.7091L16.8758 42.9176C16.5848 42.4412 15.9627 42.291 15.4863 42.5821C15.0099 42.8732 14.8598 43.4953 15.1509 43.9716L17.1228 47.1983C17.3065 47.4989 17.6333 47.6819 17.9852 47.6819H17.9927C18.3474 47.6792 18.6749 47.4908 18.8553 47.1853L23.5161 39.2979C23.8002 38.8175 23.6407 38.1975 23.1602 37.9136Z" fill="#040D21"/>
<path d="M69 18.2201V8.07768C69 4.97524 66.476 2.45121 63.3735 2.45121H62.8924C62.3341 2.45121 61.8817 2.90376 61.8817 3.46196C61.8817 4.02016 62.3341 4.4727 62.8924 4.4727H63.3735C65.3613 4.4727 66.9785 6.08989 66.9785 8.07768V18.2201C66.9785 20.2086 65.3613 21.8265 63.3735 21.8265H56.6797C56.4117 21.8265 56.1547 21.9329 55.9649 22.1226L51.1417 26.9458C50.6825 27.4052 50.1509 27.2358 49.9993 27.1728C49.8475 27.11 49.3524 26.8544 49.3524 26.205V22.8372C49.3524 22.279 48.9 21.8265 48.3416 21.8265H46.4724C44.4846 21.8265 42.8675 20.2087 42.8675 18.2201V8.07768C42.8675 6.08989 44.4846 4.4727 46.4724 4.4727H58.9411C59.4994 4.4727 59.9518 4.02016 59.9518 3.46196C59.9518 2.90376 59.4994 2.45121 58.9411 2.45121H46.4726C43.3701 2.45121 40.8461 4.97524 40.8461 8.07768V15.7596H35.3788C33.8999 7.41153 26.5922 1.05127 17.8268 1.05127C7.99713 1.05127 0 9.0484 0 18.8781C0 23.7221 1.94332 28.1202 5.0901 31.3362V55.8336C2.20638 56.3169 0.00134766 58.8296 0.00134766 61.8492C0.00134766 63.4766 0.635689 65.0081 1.78794 66.1621C2.94005 67.3142 4.47179 67.9487 6.10084 67.9487H53.661C54.2193 67.9487 54.6717 67.4961 54.6717 66.9379C54.6717 66.3797 54.2193 65.9272 53.661 65.9272H6.10084C5.01153 65.9272 3.98758 65.5029 3.2178 64.7333C2.44721 63.9615 2.0227 62.9371 2.0227 61.8492C2.0227 59.601 3.85025 57.7718 6.0972 57.77C6.09841 57.77 6.09949 57.7701 6.10071 57.7701H23.1211C23.5969 60.3172 25.8354 62.2516 28.5184 62.2516H40.4821C43.1652 62.2516 45.4036 60.3172 45.8796 57.7701H62.9005C62.9017 57.7701 62.9028 57.77 62.904 57.77C63.9906 57.7709 65.0136 58.1951 65.7834 58.9638C66.554 59.7356 66.9784 60.7604 66.9784 61.8493C66.9784 64.098 65.1491 65.9273 62.9004 65.9273H57.6849C57.1266 65.9273 56.6742 66.3799 56.6742 66.9381C56.6742 67.4963 57.1266 67.9488 57.6849 67.9488H62.9004C66.2636 67.9488 68.9999 65.2125 68.9999 61.8493C68.9999 60.2211 68.3657 58.6891 67.2127 57.5344C66.3017 56.6248 65.1546 56.0397 63.9111 55.8331V23.8217C66.7624 23.5499 69 21.1419 69 18.2201ZM40.4824 60.2301H28.5187C26.9565 60.2301 25.6319 59.1924 25.1981 57.7702H43.8031C43.3692 59.1924 42.0446 60.2301 40.4824 60.2301ZM7.11158 55.7483V33.1147C8.07381 33.8407 9.11177 34.4711 10.2112 34.9927V49.137C10.2112 51.0736 11.7861 52.649 13.7218 52.649H55.2795C57.2153 52.649 58.7902 51.0736 58.7902 49.137V24.5948C58.7902 24.342 58.7616 24.0923 58.7115 23.848H61.8898V55.7483H7.11158ZM46.4726 23.848H47.331V26.205C47.331 27.4698 48.057 28.5563 49.2258 29.0403C49.6176 29.2026 50.022 29.2818 50.4203 29.2818C51.2104 29.2818 51.9765 28.9699 52.5713 28.3751L56.7254 24.2209C56.7529 24.3427 56.7687 24.4679 56.7687 24.5947V49.1369C56.7687 49.9588 56.1006 50.6274 55.2795 50.6274H13.7218C12.9007 50.6274 12.2327 49.9588 12.2327 49.1369V35.8034C13.993 36.3866 15.8735 36.7034 17.8268 36.7034C26.2723 36.7034 33.3649 30.7994 35.194 22.902H43.3548C44.2479 23.499 45.3202 23.848 46.4726 23.848ZM40.8461 17.7811V18.2201C40.8461 19.182 41.089 20.088 41.516 20.8807H35.539C35.6129 20.223 35.6522 19.5551 35.6522 18.8781C35.6522 18.5096 35.6396 18.144 35.6175 17.7811H40.8461ZM33.5987 17.8673H18.8375V3.10469C26.7488 3.60629 33.0972 9.95537 33.5987 17.8673ZM16.8161 3.10591V6.16347C10.2534 6.6803 5.07123 12.1852 5.07123 18.8777C5.07123 22.2572 6.37967 25.441 8.75545 27.8428C8.95315 28.0427 9.21352 28.1428 9.47416 28.1428C9.73089 28.1428 9.98788 28.0455 10.1849 27.8506C10.5818 27.4581 10.5853 26.8181 10.1927 26.4213C8.19362 24.4006 7.09271 21.7215 7.09271 18.8778C7.09271 13.3007 11.3698 8.70515 16.8161 8.19412V18.8781C16.8161 19.4363 17.2686 19.8888 17.8268 19.8888H28.5105C27.9992 25.3343 23.4038 29.6105 17.8268 29.6105C16.2037 29.6105 14.6454 29.2581 13.1952 28.563C12.6918 28.3218 12.0881 28.5342 11.8468 29.0375C11.6055 29.5409 11.818 30.1446 12.3214 30.3858C14.0465 31.2128 15.8987 31.632 17.8268 31.632C24.5193 31.632 30.0239 26.4507 30.541 19.8888H33.5975C33.0744 28.1339 26.2015 34.682 17.8268 34.682C9.11177 34.682 2.02148 27.5924 2.02148 18.8781C2.02148 10.5027 8.57028 3.62907 16.8161 3.10591Z" fill="#040D21"/>
<path d="M57.6936 7.61426H46.6723C46.114 7.61426 45.6616 8.0668 45.6616 8.625C45.6616 9.1832 46.114 9.63574 46.6723 9.63574H57.6936C58.2519 9.63574 58.7043 9.1832 58.7043 8.625C58.7043 8.0668 58.2518 7.61426 57.6936 7.61426Z" fill="#040D21"/>
<path d="M61.8258 9.63574H63.1734C63.7317 9.63574 64.1842 9.1832 64.1842 8.625C64.1842 8.0668 63.7317 7.61426 63.1734 7.61426H61.8258C61.2674 7.61426 60.815 8.0668 60.815 8.625C60.815 9.1832 61.2674 9.63574 61.8258 9.63574Z" fill="#040D21"/>
<path d="M57.6936 11.5581H46.6723C46.114 11.5581 45.6616 12.0106 45.6616 12.5688C45.6616 13.127 46.114 13.5796 46.6723 13.5796H57.6936C58.2519 13.5796 58.7043 13.127 58.7043 12.5688C58.7043 12.0106 58.2518 11.5581 57.6936 11.5581Z" fill="#040D21"/>
<path d="M61.8258 13.5796H63.1734C63.7317 13.5796 64.1842 13.127 64.1842 12.5688C64.1842 12.0106 63.7317 11.5581 63.1734 11.5581H61.8258C61.2674 11.5581 60.815 12.0106 60.815 12.5688C60.815 13.127 61.2674 13.5796 61.8258 13.5796Z" fill="#040D21"/>
<path d="M57.6936 15.5015H46.6723C46.114 15.5015 45.6616 15.954 45.6616 16.5122C45.6616 17.0704 46.114 17.5229 46.6723 17.5229H57.6936C58.2519 17.5229 58.7043 17.0704 58.7043 16.5122C58.7043 15.954 58.2518 15.5015 57.6936 15.5015Z" fill="#040D21"/>
<path d="M61.8258 17.5229H63.1734C63.7317 17.5229 64.1842 17.0704 64.1842 16.5122C64.1842 15.954 63.7317 15.5015 63.1734 15.5015H61.8258C61.2674 15.5015 60.815 15.954 60.815 16.5122C60.815 17.0704 61.2674 17.5229 61.8258 17.5229Z" fill="#040D21"/>
</svg>
