<svg width="59" height="59" viewBox="0 0 59 59" fill="none" xmlns="http://www.w3.org/2000/svg">
<g clipPath="url(#clip0)">
<path d="M54.0834 3.93333H53.1C53.1 1.76117 51.3393 0 49.1667 0H19.6667C17.4945 0 15.7333 1.76117 15.7333 3.93333H14.75C12.5778 3.93333 10.8167 5.6945 10.8167 7.86667V21.6333H12.7833V7.86667C12.7833 6.78058 13.6639 5.9 14.75 5.9H15.7333V21.6333H17.7V3.93333C17.7 2.84725 18.5806 1.96667 19.6667 1.96667H49.1667C50.2532 1.96667 51.1334 2.84725 51.1334 3.93333V29.5H53.1V5.9H54.0834C55.1699 5.9 56.05 6.78058 56.05 7.86667V31.4667H28.5167V33.4333H56.05V35.4C56.05 36.4861 55.1699 37.3667 54.0834 37.3667H31.4667V39.3333H38.6021L40.962 47.2H32.45V49.1667H45.2333V47.2H43.0151L40.6552 39.3333H54.0834C56.256 39.3333 58.0167 37.5722 58.0167 35.4V7.86667C58.0167 5.6945 56.256 3.93333 54.0834 3.93333Z" fill="#040D21"/>
<path d="M19.6667 3.93311H21.6333V5.89977H19.6667V3.93311Z" fill="#040D21"/>
<path d="M23.6 3.93311H25.5667V5.89977H23.6V3.93311Z" fill="#040D21"/>
<path d="M27.5333 3.93311H29.5V5.89977H27.5333V3.93311Z" fill="#040D21"/>
<path d="M19.6667 21.6334H21.6333V17.7001H23.6V21.6334H25.5667V16.7167C25.5667 16.1737 25.1268 15.7334 24.5833 15.7334H20.65C20.1069 15.7334 19.6667 16.1737 19.6667 16.7167V21.6334Z" fill="#040D21"/>
<path d="M27.5333 27.5334H24.5833V29.5001H49.1667V9.83343C49.1667 9.29039 48.7269 8.8501 48.1833 8.8501H44.25C43.707 8.8501 43.2667 9.29039 43.2667 9.83343V27.5334H41.3V15.7334C41.3 15.1904 40.8602 14.7501 40.3167 14.7501H36.3833C35.8403 14.7501 35.4 15.1904 35.4 15.7334V27.5334H33.4333V20.6501C33.4333 20.1071 32.9935 19.6668 32.45 19.6668H28.5167C27.9736 19.6668 27.5333 20.1071 27.5333 20.6501V27.5334ZM45.2333 10.8168H47.2V27.5334H45.2333V10.8168ZM37.3667 16.7168H39.3333V27.5334H37.3667V16.7168ZM31.4667 21.6334V27.5334H29.5V21.6334H31.4667Z" fill="#040D21"/>
<path d="M10.0225 24.0044C9.83573 24.2593 9.78291 24.5887 9.88086 24.8893L11.6752 30.4561C6.39934 32.513 2.93175 37.604 2.94999 43.2668V51.1824C2.95287 52.1504 2.56828 53.0785 1.88216 53.7608C1.00445 54.6385 0.741814 55.9589 1.21716 57.1055C1.69202 58.2525 2.81123 59.0001 4.0524 59.0001H29.3814C30.6226 59.0001 31.7418 58.2525 32.2167 57.1055C32.692 55.9589 32.4294 54.6385 31.5517 53.7608C30.8655 53.0785 30.4809 52.1504 30.4833 51.1824V43.2668C30.5035 37.6025 27.0359 32.5096 21.7586 30.4517L23.5529 24.8854C23.6495 24.5858 23.5971 24.2589 23.4123 24.0044C23.2269 23.7504 22.9312 23.6001 22.6167 23.6001H10.8167C10.5026 23.6001 10.2074 23.7504 10.0225 24.0044ZM21.267 25.5668L19.5951 30.761C19.5149 31.0106 19.5375 31.2819 19.658 31.5148C19.779 31.7476 19.9879 31.9224 20.238 32.0007C25.1754 33.5266 28.5354 38.0995 28.5167 43.2668V51.1824C28.5128 52.6718 29.1048 54.1012 30.1612 55.1513C30.4766 55.4667 30.5712 55.9411 30.4003 56.3531C30.2293 56.765 29.8275 57.0339 29.3814 57.0334H4.0524C3.60635 57.0339 3.20447 56.765 3.03354 56.3531C2.86261 55.9411 2.9572 55.4667 3.27265 55.1513C4.32897 54.1012 4.92098 52.6718 4.91666 51.1824V43.2668C4.8989 38.099 8.2599 33.5261 13.1977 32.0007C13.4478 31.9224 13.6567 31.7476 13.7777 31.5148C13.8982 31.2819 13.9208 31.0106 13.8406 30.761L12.1668 25.5668H21.267Z" fill="#040D21"/>
<path d="M12.7833 42.4466C12.78 43.9696 13.8824 45.2703 15.3852 45.5166L17.7259 45.9099C18.3083 46.0131 18.716 46.5432 18.667 47.1328C18.618 47.7219 18.1283 48.1776 17.5372 48.1834H13.7667V50.15H15.7333V52.1167H17.7V50.1332C19.2869 50.0554 20.5593 48.7927 20.6486 47.2068C20.7383 45.6204 19.6163 44.2227 18.0481 43.9667L15.7079 43.5735C15.1255 43.4703 14.7178 42.9402 14.7668 42.3506C14.8158 41.7614 15.3055 41.3058 15.8966 41.3H19.6667V39.3334H17.7V37.3667H15.7333V39.3502C14.0836 39.4342 12.7877 40.7944 12.7833 42.4466Z" fill="#040D21"/>
<path d="M43.2667 55.0666C43.2667 52.8945 41.506 51.1333 39.3333 51.1333C37.1612 51.1333 35.4 52.8945 35.4 55.0666C35.4 57.2388 37.1612 59 39.3333 59C41.506 59 43.2667 57.2388 43.2667 55.0666ZM37.3667 55.0666C37.3667 53.9805 38.2472 53.1 39.3333 53.1C40.4199 53.1 41.3 53.9805 41.3 55.0666C41.3 56.1527 40.4199 57.0333 39.3333 57.0333C38.2472 57.0333 37.3667 56.1527 37.3667 55.0666Z" fill="#040D21"/>
<path d="M54.0833 52.1164C54.0833 49.9443 52.3227 48.1831 50.15 48.1831C47.9778 48.1831 46.2167 49.9443 46.2167 52.1164C46.2167 54.2886 47.9778 56.0498 50.15 56.0498C52.3227 56.0498 54.0833 54.2886 54.0833 52.1164ZM48.1833 52.1164C48.1833 51.0304 49.0639 50.1498 50.15 50.1498C51.2366 50.1498 52.1167 51.0304 52.1167 52.1164C52.1167 53.2025 51.2366 54.0831 50.15 54.0831C49.0639 54.0831 48.1833 53.2025 48.1833 52.1164Z" fill="#040D21"/>
</g>
<defs>
<clipPath id="clip0">
<rect width="59" height="59" fill="white"/>
</clipPath>
</defs>
</svg>
