<svg width="59" height="59" viewBox="0 0 59 59" fill="none" xmlns="http://www.w3.org/2000/svg">
<g clipPath="url(#clip0)">
<path d="M59.0001 15.9022C59.0001 15.7599 58.9744 15.6169 58.9208 15.4807L56.465 9.23062V3.91797C56.465 1.75755 54.7075 0 52.547 0H6.45378C4.29337 0 2.53582 1.75755 2.53582 3.91797V9.23097L0.0808645 15.4809C0.0273957 15.6171 0.00158325 15.76 0.00158325 15.9023C0.00135278 15.9023 0.00123755 15.9023 0.00100708 15.9023V18.7784C0.00100708 20.7447 0.983725 22.4094 2.53582 23.3842V57.8473C2.53582 58.4836 3.05184 58.9997 3.68816 58.9997H44.3163C44.9526 58.9997 45.4687 58.4836 45.4687 57.8473C45.4687 57.211 44.9529 56.695 44.3164 56.695H4.84062V24.2292C5.17595 24.2809 5.522 24.3094 5.87807 24.3094C7.85791 24.3094 9.54955 23.4788 10.6027 22.1487C11.6558 23.4788 13.3474 24.3094 15.3273 24.3094C17.3071 24.3094 18.9988 23.4788 20.0519 22.1487C21.105 23.4788 22.7967 24.3094 24.7765 24.3094C26.7563 24.3094 28.448 23.4788 29.5011 22.1487C30.5542 23.4788 32.2459 24.3094 34.2257 24.3094C36.2056 24.3094 37.8972 23.4788 38.9503 22.1487C40.0034 23.4788 41.6951 24.3094 43.6749 24.3094C45.6548 24.3094 47.3464 23.4788 48.3995 22.1487C49.4527 23.4788 51.1443 24.3094 53.1241 24.3094C53.48 24.3094 53.8257 24.281 54.1609 24.2293V33.432C54.1609 34.0684 54.6769 34.5844 55.3132 34.5844C55.9496 34.5844 56.4656 34.0684 56.4656 33.432V23.3844C58.0181 22.4097 59.0011 20.7448 59.0011 18.7781V15.9021C59.0004 15.9022 59.0003 15.9022 59.0001 15.9022ZM4.84062 3.91797C4.84062 3.02836 5.56429 2.30469 6.4539 2.30469H52.5473C53.4369 2.30469 54.1606 3.02836 54.1606 3.91797V8.29688H4.84062V3.91797ZM9.45034 18.7782C9.45034 20.6479 7.94803 22.0048 5.87807 22.0048C3.80812 22.0048 2.30581 20.6479 2.30581 18.7782V17.0546H9.45034V18.7782ZM18.8994 18.7782C18.8994 20.6479 17.3971 22.0048 15.3272 22.0048C13.2572 22.0048 11.7549 20.6479 11.7549 18.7782V17.0546H18.8994V18.7782ZM28.3486 18.7782C28.3486 20.6479 26.8463 22.0048 24.7764 22.0048C22.7064 22.0048 21.2041 20.6479 21.2041 18.7782V17.0546H28.3486V18.7782ZM37.7977 18.7782C37.7977 20.6479 36.2954 22.0048 34.2255 22.0048C32.1555 22.0048 30.6532 20.6479 30.6532 18.7782V17.0546H37.7977V18.7782ZM47.2468 18.7782C47.2468 20.6479 45.7445 22.0048 43.6746 22.0048C41.6046 22.0048 40.1023 20.6479 40.1023 18.7782V17.0546H47.2468V18.7782ZM2.84418 14.7499L4.4736 10.6014H54.5275L56.1576 14.7499H2.84418ZM56.6961 18.7782C56.6961 20.6479 55.1937 22.0048 53.1238 22.0048C51.0538 22.0048 49.5515 20.6479 49.5515 18.7782V17.0546H56.6961V18.7782Z" fill="#040D21"/>
<path d="M58.6622 51.8181L53.6385 46.7943L55.6301 44.8027C55.9212 44.5116 56.0349 44.0872 55.9283 43.6896C55.8217 43.292 55.5112 42.9814 55.1135 42.8748L41.297 39.1727C40.8991 39.0659 40.475 39.1799 40.184 39.4709C39.8929 39.762 39.7791 40.1864 39.8857 40.584L43.5879 54.4005C43.6945 54.7981 44.005 55.1087 44.4027 55.2153C44.8005 55.322 45.2247 55.208 45.5157 54.917L46.794 53.6388L51.8178 58.6625C52.0428 58.8874 52.3377 59 52.6326 59C52.9275 59 53.2224 58.8874 53.4474 58.6625L58.6624 53.4476C59.1122 52.9977 59.1122 52.268 58.6622 51.8181ZM45.9792 51.1945L45.2975 51.8764L42.6285 41.9157L52.5892 44.5847L51.194 45.9797L45.9792 51.1945ZM52.6326 56.218L48.4238 52.0092L52.009 48.4241L56.2178 52.6329L52.6326 56.218Z" fill="#040D21"/>
<path d="M39.1661 36.3984L35.3849 32.6172C34.9348 32.1673 34.2054 32.1673 33.7551 32.6172C33.3052 33.0672 33.3052 33.7968 33.7551 34.2469L37.5363 38.0281C37.7614 38.2531 38.0563 38.3657 38.3512 38.3657C38.646 38.3657 38.941 38.2531 39.1661 38.0281C39.6161 37.578 39.6161 36.8484 39.1661 36.3984Z" fill="#040D21"/>
<path d="M41.9445 31.7666C41.3082 31.7666 40.7922 32.2825 40.7922 32.9189V35.4177C40.7922 36.054 41.3082 36.57 41.9445 36.57C42.5808 36.57 43.0968 36.054 43.0968 35.4177V32.9189C43.0968 32.2826 42.5808 31.7666 41.9445 31.7666Z" fill="#040D21"/>
<path d="M36.5549 39.6499H34.0561C33.4198 39.6499 32.9038 40.1659 32.9038 40.8022C32.9038 41.4386 33.4198 41.9546 34.0561 41.9546H36.5549C37.1912 41.9546 37.7072 41.4386 37.7072 40.8022C37.7072 40.1659 37.1912 39.6499 36.5549 39.6499Z" fill="#040D21"/>
<path d="M27.3095 40.6234L28.9418 32.6054C29.0108 32.2665 28.924 31.9144 28.705 31.6466C28.4862 31.3786 28.1586 31.2232 27.8126 31.2232H13.2751L12.7774 29.2215C12.6499 28.7079 12.1886 28.3472 11.6592 28.3472H8.75771C8.12138 28.3472 7.60536 28.8632 7.60536 29.4995C7.60536 30.1358 8.12138 30.6519 8.75771 30.6519H10.7582L14.2082 44.5276C14.3357 45.0412 14.797 45.4019 15.3264 45.4019H26.6874C27.3237 45.4019 27.8397 44.8859 27.8397 44.2495C27.8397 43.6132 27.3237 43.0972 26.6874 43.0972H16.2273L15.8416 41.5459H26.1803C26.7282 41.5459 27.2003 41.1602 27.3095 40.6234ZM15.2684 39.2412L13.848 33.5278H26.4019L25.2389 39.2412H15.2684Z" fill="#040D21"/>
<path d="M17.0628 45.9792C16.8485 45.7649 16.5512 45.6416 16.2482 45.6416C15.9451 45.6416 15.6478 45.7648 15.4335 45.9792C15.2191 46.1936 15.0958 46.4909 15.0958 46.7939C15.0958 47.097 15.219 47.3943 15.4335 47.6085C15.6478 47.8229 15.9451 47.9463 16.2482 47.9463C16.5512 47.9463 16.8485 47.823 17.0628 47.6085C17.2771 47.3943 17.4005 47.097 17.4005 46.7939C17.4005 46.4909 17.2772 46.1936 17.0628 45.9792Z" fill="#040D21"/>
<path d="M25.5901 45.9792C25.3759 45.7649 25.0786 45.6416 24.7755 45.6416C24.4724 45.6416 24.1751 45.7648 23.9608 45.9792C23.7465 46.1936 23.6232 46.4909 23.6232 46.7939C23.6232 47.097 23.7464 47.3943 23.9608 47.6085C24.1751 47.8229 24.4724 47.9463 24.7755 47.9463C25.0786 47.9463 25.3759 47.823 25.5901 47.6085C25.8044 47.3943 25.9279 47.097 25.9279 46.7939C25.9279 46.4909 25.8046 46.1936 25.5901 45.9792Z" fill="#040D21"/>
<path d="M27.8126 50.4722H13.3674C12.7311 50.4722 12.2151 50.9882 12.2151 51.6245C12.2151 52.2608 12.731 52.7769 13.3674 52.7769H27.8126C28.4489 52.7769 28.9649 52.2608 28.9649 51.6245C28.9649 50.9882 28.4489 50.4722 27.8126 50.4722Z" fill="#040D21"/>
<path d="M9.477 50.8098C9.26266 50.5955 8.96536 50.4722 8.66229 50.4722C8.35819 50.4722 8.06204 50.5954 7.84759 50.8098C7.63336 51.0241 7.50995 51.3214 7.50995 51.6245C7.50995 51.9276 7.63325 52.2249 7.84759 52.4391C8.06192 52.6534 8.35923 52.7769 8.66229 52.7769C8.96536 52.7769 9.26266 52.6536 9.477 52.4391C9.69122 52.2249 9.81464 51.9276 9.81464 51.6245C9.81464 51.3214 9.69134 51.024 9.477 50.8098Z" fill="#040D21"/>
</g>
<defs>
<clipPath id="clip0">
<rect width="59" height="59" fill="white"/>
</clipPath>
</defs>
</svg>
