<svg width="67" height="67" viewBox="0 0 67 67" fill="none" xmlns="http://www.w3.org/2000/svg">
<path d="M60.3175 35.1347C60.9095 34.2569 61.2555 33.2001 61.2555 32.064V31.0143C61.2555 27.978 58.7852 25.5076 55.7488 25.5076C54.2339 25.5076 52.8599 26.1228 51.8632 27.1163C49.2845 19.447 42.0272 13.9072 33.5 13.9072C24.9728 13.9072 17.7155 19.4469 15.1368 27.1163C14.1401 26.1228 12.7662 25.5076 11.2512 25.5076C8.21483 25.5076 5.74446 27.978 5.74446 31.0143V32.064C5.74446 33.2001 6.09046 34.2569 6.68247 35.1347C2.87066 35.9379 0 39.3265 0 43.3737V46.0085C0 46.7311 0.585988 47.3171 1.30859 47.3171H8.11328C8.83589 47.3171 9.42188 46.7311 9.42188 46.0085C9.42188 45.2859 8.83589 44.6999 8.11328 44.6999H2.61719V43.3737C2.61719 40.1738 5.2205 37.5705 8.42041 37.5705H14.6139C15.1161 39.7796 15.9964 41.8466 17.1841 43.6988L2.25314 58.6297C0.341281 60.5417 0.341281 63.6529 2.25327 65.565C3.20933 66.5211 4.46492 66.999 5.72078 66.999C6.97664 66.999 8.23249 66.5209 9.18855 65.565L17.42 57.3334C17.931 56.8224 17.931 55.9938 17.42 55.4827C16.9089 54.9718 16.0805 54.9718 15.5693 55.4827L7.33794 63.7143C6.44613 64.6059 4.99543 64.6058 4.10375 63.7144C3.21221 62.8227 3.21221 61.3719 4.10375 60.4802L18.7609 45.8232C22.316 49.9926 27.6041 52.6416 33.5 52.6416C42.7031 52.6416 50.4267 46.1889 52.3862 37.5705H58.5796C61.7795 37.5705 64.3828 40.1738 64.3828 43.3737V44.6999H52.082C51.3594 44.6999 50.7734 45.2859 50.7734 46.0085C50.7734 46.7311 51.3594 47.3171 52.082 47.3171H65.6914C66.414 47.3171 67 46.7311 67 46.0085V43.3737C67 39.3265 64.1293 35.9379 60.3175 35.1347ZM14.1407 32.0641C14.1407 33.6573 12.8445 34.9535 11.2512 34.9535C9.65781 34.9535 8.36165 33.6573 8.36165 32.0641V31.0145C8.36165 29.4211 9.65781 28.125 11.2512 28.125C12.8445 28.125 14.1407 29.4211 14.1407 31.0145V32.0641ZM33.5 50.0244C24.2641 50.0244 16.75 42.5103 16.75 33.2744C16.75 24.0385 24.2641 16.5244 33.5 16.5244C42.7359 16.5244 50.25 24.0385 50.25 33.2744C50.25 42.5103 42.7359 50.0244 33.5 50.0244ZM58.6382 32.0641C58.6382 33.6573 57.3421 34.9535 55.7487 34.9535C54.1554 34.9535 52.8592 33.6573 52.8592 32.0641V31.0145C52.8592 29.4211 54.1554 28.125 55.7487 28.125C57.3421 28.125 58.6382 29.4211 58.6382 31.0145V32.0641Z" fill="#040D21"/>
<path d="M33.5 19.1416C25.7071 19.1416 19.3672 25.4815 19.3672 33.2744C19.3672 37.3193 21.0757 40.9722 23.8083 43.5508C23.855 43.6013 23.9051 43.6489 23.9601 43.6921C26.476 45.998 29.8264 47.4072 33.5 47.4072C37.1736 47.4072 40.524 45.9979 43.0399 43.6921C43.0949 43.6491 43.145 43.6013 43.1917 43.5508C45.9243 40.9722 47.6328 37.3193 47.6328 33.2744C47.6328 25.4816 41.2929 19.1416 33.5 19.1416ZM33.5 44.79C30.8091 44.79 28.3312 43.8621 26.3686 42.3097C27.7589 39.6789 30.4685 38.0237 33.5 38.0237C36.5315 38.0237 39.2411 39.6789 40.6314 42.3097C38.6688 43.8621 36.1909 44.79 33.5 44.79ZM30.7424 32.6489V31.6323C30.7424 30.1117 31.9794 28.8747 33.5 28.8747C35.0206 28.8747 36.2576 30.1117 36.2576 31.6323V32.6489C36.2576 34.1695 35.0206 35.4065 33.5 35.4065C31.9794 35.4065 30.7424 34.1695 30.7424 32.6489ZM42.5457 40.393C41.3469 38.4803 39.5922 37.0216 37.5385 36.1898C38.3693 35.2433 38.8748 34.0045 38.8748 32.649V31.6324C38.8748 28.6688 36.4636 26.2576 33.5 26.2576C30.5364 26.2576 28.1252 28.6688 28.1252 31.6324V32.649C28.1252 34.0045 28.6306 35.2433 29.4615 36.1898C27.4078 37.0217 25.6533 38.4803 24.4543 40.393C22.9081 38.4325 21.9844 35.9594 21.9844 33.2744C21.9844 26.9247 27.1503 21.7588 33.5 21.7588C39.8497 21.7588 45.0156 26.9247 45.0156 33.2744C45.0156 35.9594 44.0919 38.4325 42.5457 40.393Z" fill="#040D21"/>
<path d="M20.9205 51.9825C20.6771 51.7391 20.3395 51.5991 19.9953 51.5991C19.6512 51.5991 19.3136 51.7391 19.0702 51.9825C18.8269 52.2259 18.6867 52.5636 18.6867 52.9077C18.6867 53.2519 18.8268 53.5895 19.0702 53.8329C19.3136 54.0762 19.6512 54.2163 19.9953 54.2163C20.3395 54.2163 20.6771 54.0763 20.9205 53.8329C21.1638 53.5895 21.3039 53.2519 21.3039 52.9077C21.3039 52.5636 21.1639 52.2259 20.9205 51.9825Z" fill="#040D21"/>
<path d="M33.5266 0.00146484C32.8039 0.00146484 32.218 0.587453 32.218 1.31006V5.76242C32.218 6.48515 32.8039 7.07101 33.5266 7.07101C34.2492 7.07101 34.8351 6.48502 34.8351 5.76242V1.31006C34.8351 0.587453 34.2492 0.00146484 33.5266 0.00146484Z" fill="#040D21"/>
<path d="M34.4512 9.15246C34.2079 8.90906 33.8715 8.76904 33.5262 8.76904C33.1819 8.76904 32.8444 8.90893 32.601 9.15246C32.3576 9.39599 32.2176 9.73348 32.2176 10.0776C32.2176 10.4218 32.3574 10.7594 32.601 11.0027C32.8444 11.2461 33.1819 11.3862 33.5262 11.3862C33.8716 11.3862 34.2079 11.2462 34.4512 11.0027C34.6946 10.7594 34.8348 10.4218 34.8348 10.0776C34.8348 9.73348 34.6947 9.39586 34.4512 9.15246Z" fill="#040D21"/>
<path d="M44.6203 5.13413C44.1092 4.62326 43.2808 4.62326 42.7695 5.13413L40.4696 7.43412C39.9586 7.94512 39.9586 8.77373 40.4696 9.28486C40.7253 9.5403 41.06 9.66815 41.395 9.66815C41.73 9.66815 42.0647 9.5403 42.3203 9.28486L44.6203 6.98488C45.1313 6.47387 45.1313 5.64527 44.6203 5.13413Z" fill="#040D21"/>
<path d="M26.5524 7.45037L24.2303 5.12827C23.7192 4.6174 22.8908 4.6174 22.3796 5.12827C21.8686 5.63928 21.8686 6.46788 22.3796 6.97902L24.7018 9.30112C24.9574 9.55656 25.2922 9.68441 25.6271 9.68441C25.962 9.68441 26.2968 9.55656 26.5524 9.30112C27.0634 8.79011 27.0634 7.96151 26.5524 7.45037Z" fill="#040D21"/>
</svg>
