<svg width="69" height="69" viewBox="0 0 69 69" fill="none" xmlns="http://www.w3.org/2000/svg">
<path d="M22.3614 27.4919C23.7473 29.8926 25.814 31.8284 28.3001 33.0546C30.7862 34.2807 33.5801 34.7421 36.3284 34.3804C39.0768 34.0187 41.6561 32.8502 43.7403 31.0225C45.8245 29.1949 47.32 26.7902 48.0375 24.1127C48.7551 21.4351 48.6626 18.6049 47.7716 15.98C46.8807 13.355 45.2313 11.0532 43.0322 9.36559C40.8331 7.678 38.1829 6.68043 35.4168 6.49904C32.6507 6.31765 29.8929 6.96057 27.4922 8.34652C24.2748 10.2066 21.9272 13.2677 20.9652 16.8575C20.0031 20.4473 20.5053 24.2721 22.3614 27.4919ZM28.5703 10.2138C30.6016 9.04096 32.9351 8.4968 35.2757 8.65014C37.6162 8.80348 39.8588 9.64744 41.7197 11.0753C43.5806 12.5032 44.9763 14.4508 45.7303 16.6719C46.4843 18.893 46.5627 21.2878 45.9557 23.5534C45.3486 25.8191 44.0834 27.8539 42.3199 29.4004C40.5564 30.947 38.3739 31.9359 36.0484 32.2421C33.7228 32.5482 31.3588 32.1579 29.2551 31.1205C27.1514 30.083 25.4026 28.4451 24.2298 26.4137C23.4411 25.0676 22.9275 23.5783 22.7189 22.0321C22.5102 20.4859 22.6107 18.9137 23.0145 17.4067C23.4183 15.8997 24.1173 14.4878 25.0711 13.2531C26.0248 12.0183 27.2142 10.9853 28.5703 10.2138Z" fill="#040D21"/>
<path d="M65.7656 56.0624H63.5813C64.2949 55.1348 64.6835 53.9983 64.6875 52.828V20.4842C64.6858 19.0551 64.1173 17.6849 63.1067 16.6744C62.0962 15.6638 60.726 15.0953 59.2969 15.0936H52.0034C50.8584 11.3462 48.5405 8.06548 45.3909 5.73444C42.2413 3.40341 38.4265 2.14526 34.5081 2.14526C30.5897 2.14526 26.7749 3.40341 23.6253 5.73444C20.4757 8.06548 18.1577 11.3462 17.0128 15.0936H9.70312C8.27397 15.0953 6.90384 15.6638 5.89327 16.6744C4.8827 17.6849 4.31421 19.0551 4.3125 20.4842V52.828C4.31646 53.9983 4.70515 55.1348 5.41866 56.0624H3.23438C2.94844 56.0624 2.67421 56.1759 2.47203 56.3781C2.26984 56.5803 2.15625 56.8545 2.15625 57.1405V61.453C2.15796 62.8821 2.72645 64.2523 3.73702 65.2628C4.74759 66.2734 6.11772 66.8419 7.54688 66.8436H61.4531C62.8823 66.8419 64.2524 66.2734 65.263 65.2628C66.2735 64.2523 66.842 62.8821 66.8438 61.453V57.1405C66.8438 56.8545 66.7302 56.5803 66.528 56.3781C66.3258 56.1759 66.0516 56.0624 65.7656 56.0624ZM59.2969 17.2499C60.1547 17.2499 60.9774 17.5906 61.5839 18.1972C62.1905 18.8037 62.5312 19.6264 62.5312 20.4842V52.828C62.5287 53.6315 62.2265 54.4052 61.6838 54.9978C61.141 55.5903 60.3968 55.9592 59.5966 56.0322C59.7549 55.3113 59.763 54.5655 59.6203 53.8414C59.8377 53.775 60.0282 53.6408 60.1639 53.4585C60.2997 53.2762 60.3737 53.0553 60.375 52.828V20.4842C60.375 20.1983 60.2614 19.9241 60.0592 19.7219C59.857 19.5197 59.5828 19.4061 59.2969 19.4061H52.7753C52.7329 18.6829 52.6476 17.9629 52.5198 17.2499H59.2969ZM16.2247 21.5624C16.4388 25.4065 17.8628 29.0845 20.2931 32.0706C22.7234 35.0567 26.0357 37.1979 29.7563 38.1881C31.3128 38.6063 32.9174 38.8187 34.5291 38.8199C36.6401 38.8175 38.7345 38.446 40.7175 37.7224L43.5563 42.6429L42.6237 43.182C42.3761 43.325 42.1954 43.5604 42.1214 43.8366C42.0474 44.1128 42.0861 44.4071 42.2291 44.6547L46.327 51.7499H10.7812V21.5624H16.2247ZM44.5708 35.771L47.293 40.4856L45.4257 41.5637L42.7132 36.8653C43.0366 36.7046 43.3514 36.5418 43.6641 36.3575C43.9767 36.1731 44.27 35.9683 44.5708 35.771ZM44.6365 44.5102L47.4397 42.8931L49.307 41.8149L50.2385 41.2759L57.1493 53.2431V53.2485C57.5782 53.9919 57.6942 54.8753 57.4718 55.7042C57.2494 56.5332 56.7067 57.2399 55.9633 57.6688C55.2199 58.0977 54.3365 58.2137 53.5075 57.9913C52.6786 57.7689 51.9719 57.2263 51.543 56.4828L44.6365 44.5102ZM51.5667 39.263C51.4237 39.0154 51.1883 38.8347 50.9121 38.7607C50.6359 38.6867 50.3416 38.7255 50.094 38.8684L49.1603 39.4075L46.313 34.4772C48.2086 32.8739 49.7593 30.9027 50.8712 28.6828C51.9831 26.463 52.633 24.0406 52.7818 21.5624H58.2188V50.786L51.5667 39.263ZM26.4141 6.47938C28.8623 5.0573 31.6428 4.30714 34.4741 4.3048C35.8962 4.30616 37.312 4.49391 38.6853 4.86327C41.7747 5.69111 44.5493 7.41648 46.6582 9.82119C48.7671 12.2259 50.1155 15.202 50.5331 18.373C50.9506 21.5441 50.4184 24.7678 49.0038 27.6364C47.5893 30.505 45.3558 32.8898 42.5859 34.4891C40.7461 35.5677 38.711 36.2717 36.5979 36.5607C34.4848 36.8496 32.3354 36.7177 30.2735 36.1725C28.2116 35.6274 26.2779 34.6798 24.5837 33.3843C22.8895 32.0888 21.4683 30.471 20.4019 28.624C19.3356 26.777 18.645 24.7373 18.3701 22.6223C18.0952 20.5074 18.2414 18.3589 18.8002 16.3007C19.359 14.2424 20.3194 12.3151 21.6261 10.6295C22.9328 8.94394 24.56 7.5335 26.4141 6.47938ZM6.46875 20.4842C6.46875 19.6264 6.80951 18.8037 7.41608 18.1972C8.02264 17.5906 8.84532 17.2499 9.70312 17.2499H16.477C16.3483 17.9629 16.2615 18.6829 16.2172 19.4061H9.70312C9.41719 19.4061 9.14296 19.5197 8.94078 19.7219C8.73859 19.9241 8.625 20.1983 8.625 20.4842V52.828C8.625 53.1139 8.73859 53.3881 8.94078 53.5903C9.14296 53.7925 9.41719 53.9061 9.70312 53.9061H47.5712L48.8164 56.0624H9.70312C8.84532 56.0624 8.02264 55.7216 7.41608 55.115C6.80951 54.5085 6.46875 53.6858 6.46875 52.828V20.4842ZM38.8125 58.2186V59.2967C38.8125 59.5827 38.6989 59.8569 38.4967 60.0591C38.2945 60.2613 38.0203 60.3749 37.7344 60.3749H31.2656C30.9797 60.3749 30.7055 60.2613 30.5033 60.0591C30.3011 59.8569 30.1875 59.5827 30.1875 59.2967V58.2186H38.8125ZM64.6875 61.453C64.6875 62.3108 64.3467 63.1335 63.7402 63.74C63.1336 64.3466 62.3109 64.6874 61.4531 64.6874H7.54688C6.68907 64.6874 5.86639 64.3466 5.25983 63.74C4.65326 63.1335 4.3125 62.3108 4.3125 61.453V58.2186H28.0312V59.2967C28.0312 60.1545 28.372 60.9772 28.9786 61.5838C29.5851 62.1903 30.4078 62.5311 31.2656 62.5311H37.7344C38.5922 62.5311 39.4149 62.1903 40.0214 61.5838C40.628 60.9772 40.9688 60.1545 40.9688 59.2967V58.2186H50.1328C50.6342 58.8575 51.2743 59.3741 52.0047 59.7294C52.7351 60.0846 53.5366 60.2692 54.3488 60.2692C55.161 60.2692 55.9626 60.0846 56.6929 59.7294C57.4233 59.3741 58.0634 58.8575 58.5648 58.2186H64.6875V61.453Z" fill="#040D21"/>
<path d="M38.8125 26.9531H42.0469C42.3328 26.9531 42.607 26.8395 42.8092 26.6374C43.0114 26.4352 43.125 26.1609 43.125 25.875V15.0938C43.125 14.8078 43.0114 14.5336 42.8092 14.3314C42.607 14.1292 42.3328 14.0156 42.0469 14.0156H38.8125C38.5266 14.0156 38.2523 14.1292 38.0501 14.3314C37.848 14.5336 37.7344 14.8078 37.7344 15.0938V25.875C37.7344 26.1609 37.848 26.4352 38.0501 26.6374C38.2523 26.8395 38.5266 26.9531 38.8125 26.9531ZM39.8906 16.1719H40.9688V24.7969H39.8906V16.1719Z" fill="#040D21"/>
<path d="M32.3438 26.9531H35.5781C35.8641 26.9531 36.1383 26.8395 36.3405 26.6374C36.5427 26.4352 36.6562 26.1609 36.6562 25.875V18.3281C36.6562 18.0422 36.5427 17.768 36.3405 17.5658C36.1383 17.3636 35.8641 17.25 35.5781 17.25H32.3438C32.0578 17.25 31.7836 17.3636 31.5814 17.5658C31.3792 17.768 31.2656 18.0422 31.2656 18.3281V25.875C31.2656 26.1609 31.3792 26.4352 31.5814 26.6374C31.7836 26.8395 32.0578 26.9531 32.3438 26.9531ZM33.4219 19.4062H34.5V24.7969H33.4219V19.4062Z" fill="#040D21"/>
<path d="M25.875 26.9531H29.1094C29.3953 26.9531 29.6695 26.8395 29.8717 26.6374C30.0739 26.4352 30.1875 26.1609 30.1875 25.875V21.5625C30.1875 21.2766 30.0739 21.0023 29.8717 20.8001C29.6695 20.598 29.3953 20.4844 29.1094 20.4844H25.875C25.5891 20.4844 25.3148 20.598 25.1126 20.8001C24.9105 21.0023 24.7969 21.2766 24.7969 21.5625V25.875C24.7969 26.1609 24.9105 26.4352 25.1126 26.6374C25.3148 26.8395 25.5891 26.9531 25.875 26.9531ZM26.9531 22.6406H28.0312V24.7969H26.9531V22.6406Z" fill="#040D21"/>
<path d="M16.1719 45.2812H18.3281C18.6141 45.2812 18.8883 45.1677 19.0905 44.9655C19.2927 44.7633 19.4062 44.4891 19.4062 44.2031C19.4062 43.9172 19.2927 43.643 19.0905 43.4408C18.8883 43.2386 18.6141 43.125 18.3281 43.125H16.1719C15.8859 43.125 15.6117 43.2386 15.4095 43.4408C15.2073 43.643 15.0938 43.9172 15.0938 44.2031C15.0938 44.4891 15.2073 44.7633 15.4095 44.9655C15.6117 45.1677 15.8859 45.2812 16.1719 45.2812Z" fill="#040D21"/>
<path d="M22.6406 45.2812H38.8125C39.0984 45.2812 39.3727 45.1677 39.5749 44.9655C39.777 44.7633 39.8906 44.4891 39.8906 44.2031C39.8906 43.9172 39.777 43.643 39.5749 43.4408C39.3727 43.2386 39.0984 43.125 38.8125 43.125H22.6406C22.3547 43.125 22.0805 43.2386 21.8783 43.4408C21.6761 43.643 21.5625 43.9172 21.5625 44.2031C21.5625 44.4891 21.6761 44.7633 21.8783 44.9655C22.0805 45.1677 22.3547 45.2812 22.6406 45.2812Z" fill="#040D21"/>
<path d="M16.1719 40.9688H18.3281C18.6141 40.9688 18.8883 40.8552 19.0905 40.653C19.2927 40.4508 19.4062 40.1766 19.4062 39.8906C19.4062 39.6047 19.2927 39.3305 19.0905 39.1283C18.8883 38.9261 18.6141 38.8125 18.3281 38.8125H16.1719C15.8859 38.8125 15.6117 38.9261 15.4095 39.1283C15.2073 39.3305 15.0938 39.6047 15.0938 39.8906C15.0938 40.1766 15.2073 40.4508 15.4095 40.653C15.6117 40.8552 15.8859 40.9688 16.1719 40.9688Z" fill="#040D21"/>
<path d="M22.6406 40.9688H26.9531C27.2391 40.9688 27.5133 40.8552 27.7155 40.653C27.9177 40.4508 28.0312 40.1766 28.0312 39.8906C28.0312 39.6047 27.9177 39.3305 27.7155 39.1283C27.5133 38.9261 27.2391 38.8125 26.9531 38.8125H22.6406C22.3547 38.8125 22.0805 38.9261 21.8783 39.1283C21.6761 39.3305 21.5625 39.6047 21.5625 39.8906C21.5625 40.1766 21.6761 40.4508 21.8783 40.653C22.0805 40.8552 22.3547 40.9688 22.6406 40.9688Z" fill="#040D21"/>
<path d="M16.1719 49.5938H18.3281C18.6141 49.5938 18.8883 49.4802 19.0905 49.278C19.2927 49.0758 19.4062 48.8016 19.4062 48.5156C19.4062 48.2297 19.2927 47.9555 19.0905 47.7533C18.8883 47.5511 18.6141 47.4375 18.3281 47.4375H16.1719C15.8859 47.4375 15.6117 47.5511 15.4095 47.7533C15.2073 47.9555 15.0938 48.2297 15.0938 48.5156C15.0938 48.8016 15.2073 49.0758 15.4095 49.278C15.6117 49.4802 15.8859 49.5938 16.1719 49.5938Z" fill="#040D21"/>
<path d="M22.6406 49.5938H38.8125C39.0984 49.5938 39.3727 49.4802 39.5749 49.278C39.777 49.0758 39.8906 48.8016 39.8906 48.5156C39.8906 48.2297 39.777 47.9555 39.5749 47.7533C39.3727 47.5511 39.0984 47.4375 38.8125 47.4375H22.6406C22.3547 47.4375 22.0805 47.5511 21.8783 47.7533C21.6761 47.9555 21.5625 48.2297 21.5625 48.5156C21.5625 48.8016 21.6761 49.0758 21.8783 49.278C22.0805 49.4802 22.3547 49.5938 22.6406 49.5938Z" fill="#040D21"/>
</svg>
