<svg width="71" height="71" viewBox="0 0 71 71" fill="none" xmlns="http://www.w3.org/2000/svg">
<path d="M16.6406 36.6094H19.9688V38.8281H16.6406V36.6094Z" fill="#040D21"/>
<path d="M24.4062 42.1562H27.7344V44.375H24.4062V42.1562Z" fill="#040D21"/>
<path d="M16.6406 42.1562H22.1875V44.375H16.6406V42.1562Z" fill="#040D21"/>
<path d="M7.76562 42.1562H14.4219V44.375H7.76562V42.1562Z" fill="#040D21"/>
<path d="M14.4219 47.7031H27.7344V49.9219H14.4219V47.7031Z" fill="#040D21"/>
<path d="M7.76562 47.7031H12.2031V49.9219H7.76562V47.7031Z" fill="#040D21"/>
<path d="M21.0781 53.25H27.7344V55.4688H21.0781V53.25Z" fill="#040D21"/>
<path d="M7.76562 53.25H18.8594V55.4688H7.76562V53.25Z" fill="#040D21"/>
<path d="M14.4219 58.7969H21.0781V61.0156H14.4219V58.7969Z" fill="#040D21"/>
<path d="M7.76562 58.7969H12.2031V61.0156H7.76562V58.7969Z" fill="#040D21"/>
<path d="M66.5625 33.2813C66.5625 32.987 66.4456 32.7049 66.2375 32.4968C66.0295 32.2888 65.7473 32.1719 65.4531 32.1719H58.7969C58.5026 32.1719 58.2205 32.2888 58.0124 32.4968C57.8044 32.7049 57.6875 32.987 57.6875 33.2813V38.8281H52.1406C51.8464 38.8281 51.5642 38.945 51.3562 39.1531C51.1481 39.3611 51.0312 39.6433 51.0312 39.9375V45.4844H45.4844C45.1901 45.4844 44.908 45.6013 44.6999 45.8093C44.4919 46.0174 44.375 46.2995 44.375 46.5938V52.1406H38.8281C38.5339 52.1406 38.2517 52.2575 38.0437 52.4656C37.8356 52.6736 37.7187 52.9558 37.7187 53.25V59.9063H29.7623C29.5006 59.1661 28.9856 58.5422 28.3085 58.145C27.6313 57.7477 26.8355 57.6027 26.0617 57.7354C25.2879 57.8682 24.586 58.2702 24.0799 58.8705C23.5739 59.4707 23.2964 60.2306 23.2964 61.0156C23.2964 61.8007 23.5739 62.5605 24.0799 63.1608C24.586 63.761 25.2879 64.1631 26.0617 64.2958C26.8355 64.4286 27.6313 64.2835 28.3085 63.8863C28.9856 63.4891 29.5006 62.8652 29.7623 62.125H31.0625V65.4531C31.0621 65.7473 30.9452 66.0292 30.7372 66.2372C30.5292 66.4452 30.2472 66.5622 29.9531 66.5625H5.54686C5.25274 66.5622 4.97076 66.4452 4.76278 66.2372C4.55481 66.0292 4.43782 65.7473 4.43748 65.4531V39.9375H9.98436C10.8667 39.9365 11.7127 39.5855 12.3366 38.9616C12.9605 38.3377 13.3115 37.4918 13.3125 36.6094V31.0625H29.9531C30.2472 31.0628 30.5292 31.1798 30.7372 31.3878C30.9452 31.5958 31.0621 31.8778 31.0625 32.1719V33.2813H33.2812V32.1719C33.2802 31.2895 32.9293 30.4436 32.3053 29.8197C31.6814 29.1957 30.8355 28.8448 29.9531 28.8438H13.1221C12.6848 28.8426 12.2517 28.9281 11.8478 29.0955C11.4438 29.2628 11.077 29.5086 10.7687 29.8186L3.1935 37.3938C2.88348 37.7022 2.6377 38.0689 2.47038 38.4729C2.30307 38.8768 2.21753 39.3099 2.21873 39.7472V65.4531C2.21974 66.3355 2.57071 67.1814 3.19463 67.8054C3.81856 68.4293 4.66449 68.7803 5.54686 68.7813H29.9531C30.8355 68.7803 31.6814 68.4293 32.3053 67.8054C32.9293 67.1814 33.2802 66.3355 33.2812 65.4531V62.125H68.7812V59.9063H66.5625V33.2813ZM11.0937 32.6314V36.6094C11.0934 36.9035 10.9764 37.1855 10.7684 37.3935C10.5605 37.6014 10.2785 37.7184 9.98436 37.7188H6.00642L11.0937 32.6314ZM26.625 62.125C26.4056 62.125 26.1911 62.06 26.0086 61.9381C25.8262 61.8162 25.684 61.6429 25.6001 61.4402C25.5161 61.2375 25.4941 61.0144 25.5369 60.7992C25.5797 60.584 25.6854 60.3863 25.8405 60.2312C25.9957 60.076 26.1934 59.9704 26.4086 59.9276C26.6238 59.8848 26.8468 59.9067 27.0495 59.9907C27.2522 60.0747 27.4255 60.2169 27.5474 60.3993C27.6693 60.5817 27.7344 60.7962 27.7344 61.0156C27.734 61.3098 27.617 61.5917 27.4091 61.7997C27.2011 62.0077 26.9191 62.1247 26.625 62.125ZM39.9375 54.3594H44.375V59.9063H39.9375V54.3594ZM46.5937 47.7031H51.0312V59.9063H46.5937V47.7031ZM53.25 41.0469H57.6875V59.9063H53.25V41.0469ZM59.9062 59.9063V34.3906H64.3437V59.9063H59.9062Z" fill="#040D21"/>
<path d="M5.54687 29.9532C6.10908 29.9533 6.66216 29.811 7.15447 29.5395C7.64678 29.268 8.06227 28.8761 8.36215 28.4006C8.66203 27.925 8.83652 27.3812 8.86933 26.82C8.90214 26.2587 8.79221 25.6983 8.54979 25.1911L11.8785 21.8623C12.2995 22.0635 12.7582 22.1739 13.2247 22.1864C13.6912 22.1988 14.155 22.1129 14.5861 21.9343C15.0173 21.7557 15.406 21.4884 15.7271 21.1498C16.0481 20.8112 16.2944 20.4088 16.4498 19.9688H21.269C21.5148 20.6643 21.9847 21.2584 22.6049 21.6577C23.2251 22.0571 23.9604 22.239 24.6952 22.175C25.4301 22.1109 26.1228 21.8045 26.6646 21.3039C27.2063 20.8032 27.5664 20.1368 27.6881 19.4093L33.9532 14.0392C34.6483 14.4041 35.45 14.5115 36.2166 14.3425C36.9832 14.1735 37.6654 13.739 38.1427 13.1156C38.6199 12.4923 38.8615 11.7204 38.8246 10.9362C38.7878 10.152 38.4749 9.40612 37.9414 8.83029C37.4078 8.25445 36.6879 7.88576 35.9088 7.78936C35.1297 7.69296 34.3416 7.87506 33.6838 8.30348C33.0259 8.7319 32.5407 9.37906 32.3139 10.1306C32.087 10.8822 32.1331 11.6897 32.444 12.4105L27.1366 16.9597C26.7874 16.4569 26.3061 16.0602 25.7458 15.8135C25.1855 15.5667 24.5679 15.4793 23.9612 15.561C23.3544 15.6428 22.782 15.8904 22.307 16.2766C21.832 16.6628 21.4728 17.1727 21.269 17.75H16.4498C16.2993 17.324 16.0635 16.933 15.757 16.601C15.4504 16.269 15.0795 16.003 14.6667 15.819C14.254 15.6351 13.8081 15.5371 13.3563 15.5311C12.9045 15.5251 12.4561 15.6112 12.0387 15.7841C11.6212 15.9571 11.2433 16.2132 10.928 16.5369C10.6128 16.8607 10.3668 17.2452 10.205 17.6671C10.0432 18.0891 9.96903 18.5395 9.98702 18.991C10.005 19.4425 10.1148 19.8857 10.3096 20.2934L6.98086 23.6221C6.53011 23.4069 6.03669 23.2958 5.53718 23.2973C5.03767 23.2987 4.5449 23.4126 4.09539 23.6304C3.64588 23.8482 3.25117 24.1645 2.94054 24.5556C2.6299 24.9468 2.41131 25.4029 2.30097 25.89C2.19062 26.3772 2.19136 26.883 2.30312 27.3698C2.41488 27.8567 2.63481 28.3121 2.94658 28.7024C3.25835 29.0926 3.65398 29.4077 4.10412 29.6242C4.55426 29.8408 5.04737 29.9532 5.54687 29.9532ZM35.5 9.9844C35.7194 9.9844 35.9339 10.0495 36.1163 10.1714C36.2988 10.2933 36.441 10.4665 36.5249 10.6692C36.6089 10.8719 36.6309 11.095 36.5881 11.3102C36.5453 11.5254 36.4396 11.7231 36.2845 11.8782C36.1293 12.0334 35.9316 12.139 35.7164 12.1818C35.5012 12.2246 35.2782 12.2027 35.0755 12.1187C34.8728 12.0347 34.6995 11.8925 34.5776 11.7101C34.4557 11.5277 34.3906 11.3132 34.3906 11.0938C34.391 10.7997 34.508 10.5177 34.7159 10.3097C34.9239 10.1017 35.2059 9.98474 35.5 9.9844ZM24.4063 17.75C24.6257 17.75 24.8402 17.8151 25.0226 17.937C25.205 18.0589 25.3472 18.2322 25.4312 18.4349C25.5151 18.6376 25.5371 18.8606 25.4943 19.0758C25.4515 19.291 25.3458 19.4887 25.1907 19.6439C25.0356 19.799 24.8379 19.9047 24.6227 19.9475C24.4075 19.9903 24.1844 19.9683 23.9817 19.8843C23.779 19.8004 23.6057 19.6582 23.4838 19.4757C23.3619 19.2933 23.2969 19.0788 23.2969 18.8594C23.2972 18.5653 23.4142 18.2833 23.6222 18.0753C23.8302 17.8674 24.1121 17.7504 24.4063 17.75ZM13.3125 17.75C13.5319 17.75 13.7464 17.8151 13.9288 17.937C14.1113 18.0589 14.2535 18.2322 14.3374 18.4349C14.4214 18.6376 14.4434 18.8606 14.4006 19.0758C14.3578 19.291 14.2521 19.4887 14.0969 19.6439C13.9418 19.799 13.7441 19.9047 13.5289 19.9475C13.3137 19.9903 13.0907 19.9683 12.888 19.8843C12.6852 19.8004 12.512 19.6582 12.3901 19.4757C12.2682 19.2933 12.2031 19.0788 12.2031 18.8594C12.2035 18.5653 12.3205 18.2833 12.5284 18.0753C12.7364 17.8674 13.0184 17.7504 13.3125 17.75ZM5.54687 25.5157C5.76629 25.5157 5.98077 25.5807 6.16321 25.7026C6.34565 25.8245 6.48784 25.9978 6.5718 26.2005C6.65577 26.4032 6.67774 26.6263 6.63493 26.8415C6.59213 27.0567 6.48647 27.2543 6.33132 27.4095C6.17617 27.5646 5.9785 27.6703 5.7633 27.7131C5.54811 27.7559 5.32505 27.7339 5.12233 27.65C4.91962 27.566 4.74636 27.4238 4.62446 27.2414C4.50256 27.0589 4.4375 26.8444 4.4375 26.625C4.43784 26.3309 4.55482 26.0489 4.7628 25.841C4.97077 25.633 5.25275 25.516 5.54687 25.5157Z" fill="#040D21"/>
<path d="M45.7015 28.167L38.3687 35.4999H28.6529C28.3912 34.7597 27.8763 34.1359 27.1991 33.7386C26.5219 33.3414 25.7261 33.1963 24.9523 33.3291C24.1786 33.4618 23.4766 33.8639 22.9706 34.4641C22.4646 35.0644 22.187 35.8242 22.187 36.6093C22.187 37.3944 22.4646 38.1542 22.9706 38.7544C23.4766 39.3547 24.1786 39.7567 24.9523 39.8895C25.7261 40.0222 26.5219 39.8772 27.1991 39.4799C27.8763 39.0827 28.3912 38.4588 28.6529 37.7186H31.0625V57.6874H33.2813V37.7186H38.8281C39.1224 37.7186 39.4046 37.6018 39.6126 37.3937L47.6192 29.3871C50.9201 31.139 54.7709 31.5451 58.3646 30.5203C61.9582 29.4955 65.0156 27.1194 66.896 23.89C68.7763 20.6607 69.3335 16.8288 68.4509 13.1976C67.5682 9.56644 65.3141 6.41793 62.1612 4.41206C59.0083 2.40619 55.2013 1.6987 51.5382 2.4379C47.8751 3.1771 44.6404 5.30559 42.5121 8.3772C40.3838 11.4488 39.5271 15.2251 40.1217 18.9144C40.7163 22.6037 42.7159 25.9196 45.7015 28.167L45.7015 28.167ZM25.5156 37.7186C25.2962 37.7186 25.0817 37.6536 24.8993 37.5317C24.7169 37.4098 24.5747 37.2365 24.4907 37.0338C24.4067 36.8311 24.3848 36.608 24.4276 36.3928C24.4704 36.1776 24.576 35.98 24.7312 35.8248C24.8863 35.6697 25.084 35.564 25.2992 35.5212C25.5144 35.4784 25.7375 35.5004 25.9402 35.5843C26.1429 35.6683 26.3162 35.8105 26.4381 35.9929C26.56 36.1754 26.625 36.3899 26.625 36.6093C26.6247 36.9034 26.5077 37.1854 26.2997 37.3933C26.0917 37.6013 25.8098 37.7183 25.5156 37.7186ZM63.258 24.9816L56.8298 17.7499H66.5115C66.2654 20.4562 65.12 23.0022 63.258 24.9816ZM66.5115 15.5311H55.4688V4.48836C58.3086 4.75159 60.967 5.99959 62.9837 8.01626C65.0003 10.0329 66.2483 12.6913 66.5115 15.5311ZM53.25 4.48836V16.6405C53.2499 16.9122 53.35 17.1743 53.5312 17.3767L53.5302 17.3776L61.6005 26.4567C60.0858 27.5742 58.3331 28.3261 56.4794 28.6536C54.6257 28.981 52.7214 28.8751 50.9155 28.3441C49.1096 27.8132 47.451 26.8716 46.0696 25.5929C44.6881 24.3143 43.6212 22.7334 42.9524 20.9739C42.2836 19.2144 42.0309 17.3239 42.2143 15.4505C42.3976 13.5771 43.0119 11.7715 44.0092 10.175C45.0064 8.57855 46.3595 7.23446 47.9626 6.24792C49.5658 5.26138 51.3754 4.65915 53.25 4.48836Z" fill="#040D21"/>
</svg>
