<svg width="69" height="69" viewBox="0 0 69 69" fill="none" xmlns="http://www.w3.org/2000/svg">
<path d="M26.4604 22.0142C22.6022 24.5079 20.238 28.7572 20.1522 33.3498C20.1522 33.9852 20.6671 34.5001 21.3019 34.5001C21.9373 34.5001 22.4522 33.9852 22.4522 33.3498C22.5312 29.5622 24.4747 26.0572 27.6459 23.9846C28.1797 23.6525 28.3477 22.9534 28.0239 22.4148C27.6996 21.8768 27.0032 21.6978 26.4604 22.0142Z" fill="#040D21"/>
<path d="M61.5521 28.7498C58.821 28.7535 56.4678 30.675 55.9183 33.3498H41.8858C41.6199 32.0905 40.9377 30.9577 39.9491 30.1333L43.8346 23.0002H47.8681C48.4588 25.8924 51.143 27.8675 54.08 27.5706C57.0169 27.2742 59.2521 24.8016 59.2521 21.8499C59.2521 18.8982 57.0169 16.4256 54.08 16.1292C51.143 15.8323 48.4588 17.808 47.8681 20.7002H44.3021V13.126L48.2282 9.19986H53.6183C54.2084 12.0921 56.8932 14.0677 59.8301 13.7708C62.7671 13.4745 65.0023 11.0018 65.0023 8.05014C65.0023 5.09793 62.7671 2.62582 59.8301 2.32892C56.8932 2.03254 54.2084 4.0077 53.6183 6.89989H48.2282C47.6186 6.90147 47.0343 7.14363 46.6021 7.57372L45.6161 8.56025C44.808 8.26124 43.9857 8.00276 43.1518 7.7864V2.29996C43.1503 1.03022 42.1216 0.00157929 40.8519 0H31.652C30.3823 0.00157929 29.3536 1.03022 29.3521 2.29996V7.78535C26.8521 8.42285 24.4552 9.41306 22.2342 10.7249L18.3766 6.86673C17.9465 6.42348 17.3542 6.17395 16.7362 6.17553H16.7341C16.1219 6.1729 15.5344 6.41874 15.1069 6.85725L8.61921 13.3439C8.17859 13.7735 7.92959 14.362 7.92748 14.9769C7.9259 15.5923 8.17122 16.1824 8.60921 16.6146L12.4758 20.4817C11.164 22.7033 10.1743 25.1001 9.53572 27.6001H4.05192C2.78217 27.6017 1.75353 28.6303 1.75195 29.9001V39.0999C1.75353 40.3697 2.78217 41.3983 4.05192 41.3999H9.53572C10.1743 43.8999 11.164 46.2967 12.4758 48.5183L8.61921 52.3749C8.17859 52.8044 7.92959 53.393 7.92748 54.0079C7.9259 54.6232 8.17122 55.2134 8.60921 55.645L15.0969 62.1322C15.5259 62.576 16.1171 62.826 16.7346 62.8245H16.7367C17.35 62.8271 17.9375 62.5813 18.3666 62.1427L22.2342 58.2756C24.4552 59.5875 26.8521 60.5777 29.3521 61.2152V66.7C29.3536 67.9698 30.3823 68.9984 31.652 69H40.8519C42.1216 68.9984 43.1503 67.9698 43.1518 66.7V61.2136C43.9857 60.9972 44.808 60.7388 45.6161 60.4398L46.6021 61.4263C47.0343 61.8564 47.6186 62.0985 48.2282 62.1001H53.6183C54.2084 64.9923 56.8932 66.9675 59.8301 66.6711C62.7671 66.3742 65.0023 63.9021 65.0023 60.9499C65.0023 57.9982 62.7671 55.5255 59.8301 55.2292C56.8932 54.9323 54.2084 56.9079 53.6183 59.8001H48.2282L44.3021 55.874V48.2998H47.8681C48.4588 51.192 51.143 53.1677 54.08 52.8708C57.0169 52.5744 59.2521 50.1018 59.2521 47.1501C59.2521 44.1984 57.0169 41.7258 54.08 41.4294C51.143 41.1325 48.4588 43.1076 47.8681 45.9998H43.8346L39.9491 38.8667C40.9377 38.0423 41.6199 36.9095 41.8858 35.6502H55.9183C56.5237 38.6146 59.3227 40.6034 62.3217 40.1981C65.3203 39.7932 67.4923 37.1332 67.2891 34.1141C67.0859 31.0951 64.578 28.7498 61.5521 28.7498ZM59.2521 4.59993C61.1573 4.59993 62.7018 6.14447 62.7018 8.05014C62.7018 9.95528 61.1573 11.4998 59.2521 11.4998C57.3465 11.4998 55.8019 9.95528 55.8019 8.05014C55.804 6.14552 57.3475 4.60204 59.2521 4.59993ZM59.2521 57.5002C61.1573 57.5002 62.7018 59.0447 62.7018 60.9499C62.7018 62.8555 61.1573 64.4001 59.2521 64.4001C57.3465 64.4001 55.8019 62.8555 55.8019 60.9499C55.804 59.0452 57.3475 57.5023 59.2521 57.5002ZM36.252 37.9502C34.3468 37.9502 32.8017 36.4051 32.8017 34.5C32.8017 32.5949 34.3468 31.0498 36.252 31.0498C38.1571 31.0498 39.7022 32.5949 39.7022 34.5C39.7001 36.4046 38.1566 37.9481 36.252 37.9502ZM53.502 18.4002C55.4071 18.4002 56.9522 19.9448 56.9522 21.8499C56.9522 23.7556 55.4071 25.3001 53.502 25.3001C51.5968 25.3001 50.0517 23.7556 50.0517 21.8499C50.0538 19.9453 51.5973 18.4024 53.502 18.4002ZM41.7526 59.1837C41.2262 59.3 40.8519 59.767 40.8519 60.306V66.7H31.652V60.306C31.652 59.7654 31.2756 59.2979 30.7481 59.1826C27.8828 58.5546 25.1512 57.427 22.6775 55.8509C22.2226 55.5634 21.6294 55.6287 21.2482 56.0088L16.7336 60.5166L10.2359 54.0121L14.7437 49.5043C15.1248 49.1231 15.1901 48.5288 14.9011 48.0745C13.3255 45.6008 12.1973 42.8686 11.5688 40.0043C11.4535 39.4763 10.986 39.1005 10.4459 39.0999H4.05192V29.9001H10.4459C10.986 29.9001 11.4535 29.5237 11.5688 28.9962C12.1973 26.1314 13.3255 23.3992 14.9011 20.9255C15.1901 20.4712 15.1248 19.8769 14.7437 19.4963L10.2359 14.9811L16.7404 8.48339L21.2482 12.9912C21.6294 13.3723 22.2237 13.4381 22.678 13.1491C25.1517 11.573 27.8833 10.4454 30.7481 9.81789C31.2762 9.70207 31.652 9.23408 31.652 8.69396V2.29996H40.8519V8.69396C40.8519 9.23302 41.2262 9.69997 41.7526 9.81631C42.4638 9.97476 43.1476 10.1616 43.8088 10.367L42.676 11.4998C42.2427 11.9304 42.0005 12.5158 42.0021 13.126V14.6163C33.5456 12.1684 24.4663 15.3364 19.3689 22.5143C14.2709 29.6916 14.2709 39.3084 19.3689 46.4857C24.4663 53.6636 33.5456 56.8316 42.0021 54.3837V55.874C42.0005 56.4842 42.2432 57.0696 42.676 57.5002L43.8088 58.6325C43.1476 58.8389 42.4638 59.0252 41.7526 59.1837ZM53.502 43.6999C55.4071 43.6999 56.9522 45.2444 56.9522 47.1501C56.9522 49.0552 55.4071 50.5998 53.502 50.5998C51.5968 50.5998 50.0517 49.0552 50.0517 47.1501C50.0538 45.2455 51.5973 43.702 53.502 43.6999ZM42.0021 47.4428V51.9648C34.41 54.4822 26.0608 51.8069 21.3467 45.3449C16.632 38.8836 16.632 30.1164 21.3467 23.6551C26.0608 17.1931 34.41 14.5178 42.0021 17.0352V21.5572L37.9318 29.0294C37.389 28.8525 36.8226 28.7582 36.252 28.7498C33.0765 28.7498 30.5018 31.3246 30.5018 34.5C30.5018 37.6754 33.0765 40.2502 36.252 40.2502C36.8226 40.2418 37.389 40.1475 37.9318 39.9706L42.0021 47.4428ZM61.5521 37.9502C59.6464 37.9502 58.1019 36.4051 58.1019 34.5C58.1019 32.5949 59.6464 31.0498 61.5521 31.0498C63.4572 31.0498 65.0018 32.5949 65.0018 34.5C64.9997 36.4046 63.4567 37.9481 61.5521 37.9502Z" fill="#040D21"/>
</svg>
