<svg width="35" height="35" viewBox="0 0 35 35" fill="none" xmlns="http://www.w3.org/2000/svg">
<g clip-path="url(#clip0_0_300)">
<g clip-path="url(#clip1_0_300)">
<g clip-path="url(#clip2_0_300)">
<path d="M8.8753 11.6895H2.74579C1.23177 11.6895 0 12.9212 0 14.4352V20.5648C0 22.0787 1.23177 23.3105 2.74579 23.3105H8.8753C10.3893 23.3105 11.6211 22.0787 11.6211 20.5648V14.4352C11.6211 12.9212 10.3893 11.6895 8.8753 11.6895ZM10.2539 20.5648C10.2539 21.3249 9.63544 21.9433 8.8753 21.9433H2.74579C1.98564 21.9433 1.36719 21.3249 1.36719 20.5648V14.4352C1.36719 13.6751 1.98564 13.0566 2.74579 13.0566H3.00781V17.5567C3.00849 18.1528 3.1958 18.7195 3.5499 19.1953C3.72011 19.4243 3.92451 19.6246 4.15693 19.7914C4.39209 19.9595 4.65117 20.0888 4.92598 20.1756C4.99297 20.1968 5.0627 20.2077 5.13174 20.2077C5.43191 20.2077 5.69372 20.0156 5.78388 19.7299C5.83864 19.5555 5.82285 19.3703 5.73884 19.2083C5.65407 19.0463 5.51189 18.9267 5.33757 18.872C4.76061 18.6895 4.37363 18.1611 4.37507 17.5568V13.0566H8.87536C9.6355 13.0566 10.2539 13.6751 10.2539 14.4352V20.5648Z" fill="#FBF2DE"/>
<path d="M20.5648 0H14.4352C12.9212 0 11.6895 1.23177 11.6895 2.74579V8.8753C11.6895 10.3893 12.9212 11.6211 14.4352 11.6211H20.5648C22.0787 11.6211 23.3105 10.3893 23.3105 8.8753V2.74579C23.3105 1.23177 22.0787 0 20.5648 0ZM21.9433 8.8753C21.9433 9.63544 21.3249 10.2539 20.5648 10.2539H14.4352C13.6751 10.2539 13.0566 9.63544 13.0566 8.8753V2.74579C13.0566 1.98564 13.6751 1.36719 14.4352 1.36719H14.6972V5.86728C14.6979 6.46339 14.8852 7.0301 15.2393 7.50587C15.4095 7.73488 15.6139 7.93514 15.8463 8.10197C16.0815 8.27009 16.3406 8.39936 16.6154 8.48616C16.6824 8.50739 16.7521 8.51824 16.8212 8.51824C17.1213 8.51824 17.3831 8.32615 17.4733 8.04049C17.5868 7.68087 17.3865 7.29598 17.027 7.18252C16.45 7 16.0631 6.47167 16.0645 5.86734V1.36719H20.5648C21.3249 1.36719 21.9433 1.98564 21.9433 2.74579V8.8753Z" fill="#FBF2DE"/>
<path d="M32.2542 11.7578H26.1247C24.6107 11.7578 23.3789 12.9896 23.3789 14.5036V20.6332C23.3789 22.1472 24.6107 23.3789 26.1247 23.3789H32.2542C33.7682 23.3789 35 22.1472 35 20.6332V14.5036C35 12.9896 33.7682 11.7578 32.2542 11.7578ZM33.6329 20.6332C33.6329 21.3933 33.0144 22.0118 32.2542 22.0118H26.1247C25.3646 22.0118 24.7461 21.3933 24.7461 20.6332V14.5036C24.7461 13.7435 25.3646 13.125 26.1247 13.125H26.3867V17.6252C26.3874 18.2212 26.5747 18.7879 26.9288 19.2637C27.0991 19.4927 27.3035 19.693 27.5359 19.8598C27.771 20.028 28.0301 20.1572 28.3049 20.244C28.3719 20.2653 28.4416 20.2761 28.5114 20.2761C28.8108 20.2761 29.0726 20.084 29.1628 19.7976C29.2175 19.6239 29.2018 19.4387 29.1177 19.2767C29.033 19.1148 28.8908 18.9951 28.7165 18.9403C28.1395 18.7579 27.7526 18.2295 27.754 17.6252V13.125H32.2543C33.0145 13.125 33.6329 13.7435 33.6329 14.5036V20.6332Z" fill="#FBF2DE"/>
<path d="M20.5648 23.3789H14.4352C12.9212 23.3789 11.6895 24.6107 11.6895 26.1247V32.2542C11.6895 33.7682 12.9212 35 14.4352 35H20.5648C22.0787 35 23.3105 33.7682 23.3105 32.2542V26.1247C23.3105 24.6107 22.0787 23.3789 20.5648 23.3789ZM21.9434 32.2542C21.9434 33.0144 21.3249 33.6328 20.5648 33.6328H14.4352C13.6751 33.6328 13.0566 33.0144 13.0566 32.2542V26.1247C13.0566 25.3646 13.6751 24.7461 14.4352 24.7461H14.6972V29.2462C14.6979 29.8423 14.8852 30.409 15.2393 30.8848C15.4095 31.1138 15.6139 31.3147 15.8463 31.4809C16.0815 31.6491 16.3406 31.7916 16.6154 31.8784C16.6824 31.8997 16.7521 31.9239 16.8212 31.9239H16.8219C17.1213 31.9239 17.3831 31.7184 17.4733 31.432C17.5281 31.2583 17.5123 31.0664 17.4275 30.9045C17.3435 30.7424 17.2013 30.6161 17.027 30.5614C16.45 30.3788 16.0631 29.8505 16.0645 29.2462V24.7461H20.5648C21.325 24.7461 21.9434 25.3646 21.9434 26.1247V32.2542Z" fill="#FBF2DE"/>
<path d="M3.6914 10.1854C4.06888 10.1854 4.375 9.87923 4.375 9.50176V7.38012C4.375 5.89827 5.58052 4.71662 7.0623 4.71662H7.85161L7.23071 5.32563C6.96377 5.59258 6.96377 6.01949 7.23071 6.28642C7.36423 6.41989 7.53918 6.48365 7.71406 6.48365C7.889 6.48365 8.06394 6.4154 8.19747 6.28199L9.98533 4.49336C10.1135 4.36512 10.1855 4.19094 10.1855 4.00958C10.1855 3.82822 10.1135 3.65418 9.98533 3.526L8.19747 1.738C7.93042 1.47112 7.4977 1.47112 7.23065 1.738C6.96372 2.00494 6.96372 2.44976 7.23065 2.7167L7.85155 3.34943H7.0623C4.82658 3.34943 3.00781 5.14448 3.00781 7.38012V9.50176C3.00781 9.87923 3.31393 10.1854 3.6914 10.1854Z" fill="#FBF2DE"/>
<path d="M25.515 4.375H27.6367C29.1185 4.375 30.3515 5.59754 30.3515 7.07927V7.86864L29.7169 7.24774C29.4498 6.98087 29.0102 6.98087 28.7432 7.24774C28.4763 7.51467 28.4728 7.94751 28.7398 8.21456L30.526 10.0024C30.6542 10.1306 30.8272 10.2026 31.0085 10.2026C31.1899 10.2026 31.3633 10.1306 31.4915 10.0024L33.2791 8.21456C33.546 7.94762 33.5458 7.51473 33.2788 7.24774C33.0119 6.98087 32.5929 6.98087 32.3259 7.24774L31.7187 7.86858V7.07927C31.7187 4.8436 29.8723 3.00781 27.6367 3.00781H25.515C25.1376 3.00781 24.8314 3.31393 24.8314 3.6914C24.8314 4.06888 25.1376 4.375 25.515 4.375Z" fill="#FBF2DE"/>
<path d="M31.3086 24.9338C30.9311 24.9338 30.625 25.2399 30.625 25.6174V27.7391C30.625 29.2209 29.4025 30.4199 27.9207 30.4199H27.1315L27.7524 29.8023C28.0193 29.5353 28.0193 29.1041 27.7524 28.8372C27.4855 28.5704 27.0528 28.5711 26.7855 28.838L24.9977 30.6262C24.8695 30.7543 24.7974 30.9285 24.7974 31.1098C24.7974 31.291 24.8695 31.465 24.9977 31.5932L26.7855 33.3812C26.9191 33.5146 27.0939 33.5814 27.2689 33.5814C27.4438 33.5814 27.6188 33.5147 27.7522 33.3813C28.0192 33.1143 28.0192 32.6782 27.7522 32.4112L27.1313 31.7871H27.9207C30.1563 31.7871 31.9922 29.9748 31.9922 27.7391V25.6174C31.9922 25.2399 31.6861 24.9338 31.3086 24.9338Z" fill="#FBF2DE"/>
<path d="M9.46798 30.6932H7.34628C5.86455 30.6932 4.64849 29.5217 4.64849 28.04V27.2506L5.27459 27.8715C5.4081 28.005 5.58563 28.0718 5.76063 28.0718C5.9356 28.0718 6.11177 28.005 6.24535 27.8715C6.51229 27.6046 6.51299 27.1718 6.24605 26.9047L4.45852 25.1169C4.19157 24.8501 3.75899 24.85 3.49192 25.1169L1.70405 26.9047C1.4371 27.1716 1.4371 27.6045 1.70412 27.8715C1.97112 28.1384 2.39864 28.1385 2.66566 27.8715L3.2813 27.2506V28.04C3.2813 30.2756 5.11067 32.0604 7.34628 32.0604H9.46798C9.84545 32.0604 10.1515 31.7542 10.1515 31.3768C10.1515 30.9993 9.84545 30.6932 9.46798 30.6932Z" fill="#FBF2DE"/>
<path d="M7.85658 18.9355C7.47922 18.9355 7.17297 19.2425 7.17297 19.6192C7.17297 19.9958 7.47922 20.3028 7.85658 20.3028C8.23324 20.3028 8.54019 19.9958 8.54019 19.6192C8.54019 19.2425 8.23318 18.9355 7.85658 18.9355Z" fill="#FBF2DE"/>
<path d="M19.546 7.24609C19.1687 7.24609 18.8624 7.55299 18.8624 7.9297C18.8624 8.30636 19.1687 8.61325 19.546 8.61325C19.9227 8.61325 20.2296 8.30636 20.2296 7.9297C20.2296 7.55299 19.9226 7.24609 19.546 7.24609Z" fill="#FBF2DE"/>
<path d="M31.2354 19.0039C30.8581 19.0039 30.5519 19.3109 30.5519 19.6875C30.5519 20.0642 30.8581 20.3711 31.2354 20.3711C31.6121 20.3711 31.919 20.0642 31.919 19.6875C31.919 19.3109 31.612 19.0039 31.2354 19.0039Z" fill="#FBF2DE"/>
<path d="M19.546 30.625C19.1687 30.625 18.8624 30.932 18.8624 31.3086C18.8624 31.6853 19.1687 31.9922 19.546 31.9922C19.9227 31.9922 20.2296 31.6853 20.2296 31.3086C20.2296 30.932 19.9226 30.625 19.546 30.625Z" fill="#FBF2DE"/>
</g>
</g>
</g>
<defs>
<clipPath id="clip0_0_300">
<rect width="35" height="35" fill="white"/>
</clipPath>
<clipPath id="clip1_0_300">
<rect width="35" height="35" fill="white"/>
</clipPath>
<clipPath id="clip2_0_300">
<rect width="35" height="35" fill="white"/>
</clipPath>
</defs>
</svg>
