<svg width="35" height="35" viewBox="0 0 35 35" fill="none" xmlns="http://www.w3.org/2000/svg">
<g clip-path="url(#clip0_0_319)">
<path d="M11.3428 13.9453C12.0457 15.163 13.0941 16.145 14.3551 16.7669C15.6162 17.3889 17.0334 17.6229 18.4275 17.4395C19.8216 17.256 21.1299 16.6633 22.1871 15.7362C23.2443 14.8091 24.0029 13.5894 24.3669 12.2312C24.7309 10.873 24.6839 9.43739 24.232 8.10592C23.7801 6.77439 22.9434 5.60682 21.8279 4.75078C20.7125 3.89476 19.3682 3.38874 17.9651 3.29673C16.562 3.20473 15.1631 3.53084 13.9453 4.23386C12.3133 5.17738 11.1225 6.73011 10.6345 8.55103C10.1465 10.3719 10.4013 12.3121 11.3428 13.9453ZM14.4922 5.18103C15.5226 4.58611 16.7062 4.31009 17.8935 4.38787C19.0807 4.46565 20.2182 4.89375 21.1622 5.61803C22.1061 6.34232 22.8141 7.33024 23.1965 8.45688C23.579 9.58353 23.6188 10.7983 23.3109 11.9475C23.0029 13.0968 22.3612 14.1289 21.4666 14.9134C20.5721 15.6979 19.465 16.1995 18.2854 16.3548C17.1058 16.5101 15.9067 16.3121 14.8396 15.7859C13.7725 15.2596 12.8854 14.4288 12.2905 13.3984C11.8904 12.7156 11.6299 11.9601 11.5241 11.1758C11.4182 10.3915 11.4692 9.59403 11.674 8.82961C11.8789 8.06519 12.2334 7.349 12.7172 6.72271C13.201 6.09636 13.8043 5.57237 14.4922 5.18103Z" fill="#FBF2DE"/>
<path d="M33.3594 28.4374H32.2514C32.6134 27.9669 32.8105 27.3904 32.8125 26.7968V10.3905C32.8116 9.66559 32.5233 8.97056 32.0106 8.45799C31.4981 7.94537 30.803 7.657 30.0781 7.65613H26.3785C25.7977 5.75528 24.622 4.09114 23.0244 2.90873C21.4267 1.72633 19.4917 1.08813 17.5041 1.08813C15.5165 1.08813 13.5815 1.72633 11.9838 2.90873C10.3862 4.09114 9.21043 5.75528 8.62968 7.65613H4.92187C4.19694 7.657 3.50195 7.94537 2.98934 8.45799C2.47673 8.97056 2.18837 9.66559 2.1875 10.3905V26.7968C2.18951 27.3904 2.38667 27.9669 2.7486 28.4374H1.64063C1.49559 28.4374 1.35648 28.495 1.25393 28.5975C1.15137 28.7001 1.09375 28.8392 1.09375 28.9843V31.1718C1.09462 31.8967 1.38298 32.5917 1.89559 33.1043C2.4082 33.6169 3.10319 33.9053 3.82813 33.9061H31.1719C31.8968 33.9053 32.5918 33.6169 33.1044 33.1043C33.617 32.5917 33.9054 31.8967 33.9063 31.1718V28.9843C33.9063 28.8392 33.8487 28.7001 33.7461 28.5975C33.6435 28.495 33.5044 28.4374 33.3594 28.4374ZM30.0781 8.74991C30.5133 8.74991 30.9306 8.92273 31.2382 9.23042C31.5459 9.53807 31.7187 9.95538 31.7187 10.3905V26.7968C31.7175 27.2043 31.5642 27.5968 31.2889 27.8974C31.0135 28.1979 30.6361 28.3851 30.2302 28.4221C30.3105 28.0564 30.3146 27.6781 30.2422 27.3108C30.3525 27.2771 30.4491 27.2091 30.5179 27.1166C30.5868 27.0241 30.6243 26.9121 30.625 26.7968V10.3905C30.625 10.2455 30.5674 10.1064 30.4648 10.0038C30.3622 9.90126 30.2232 9.84363 30.0781 9.84363H26.7701C26.7486 9.47679 26.7053 9.11158 26.6405 8.74991H30.0781ZM8.22992 10.9374C8.33852 12.8873 9.06084 14.753 10.2936 16.2677C11.5264 17.7823 13.2065 18.8685 15.0938 19.3707C15.8833 19.5829 16.6972 19.6906 17.5148 19.6912C18.5856 19.69 19.6479 19.5016 20.6538 19.1345L22.0938 21.6304L21.6207 21.9039C21.4951 21.9764 21.4035 22.0958 21.3659 22.2359C21.3284 22.376 21.348 22.5253 21.4206 22.6509L23.4992 26.2499H5.46872V10.9374H8.22992ZM22.6084 18.1447L23.9892 20.5361L23.042 21.083L21.6661 18.6997C21.8302 18.6182 21.9898 18.5357 22.1485 18.4422C22.307 18.3486 22.4558 18.2447 22.6084 18.1447ZM22.6417 22.5776L24.0636 21.7573L25.0108 21.2104L25.4833 20.937L28.9888 27.0073V27.0101C29.2063 27.3872 29.2652 27.8353 29.1524 28.2557C29.0396 28.6762 28.7643 29.0347 28.3872 29.2522C28.0101 29.4698 27.562 29.5286 27.1415 29.4158C26.721 29.303 26.3626 29.0278 26.145 28.6507L22.6417 22.5776ZM26.157 19.916C26.0845 19.7904 25.9651 19.6987 25.825 19.6612C25.6849 19.6236 25.5356 19.6433 25.41 19.7158L24.9364 19.9893L23.4921 17.4884C24.4536 16.6751 25.2402 15.6752 25.8042 14.5492C26.3682 13.4232 26.6979 12.1945 26.7734 10.9374H29.5313V25.761L26.157 19.916ZM13.3985 3.2866C14.6403 2.56526 16.0507 2.18474 17.4869 2.18355C18.2082 2.18424 18.9264 2.27948 19.623 2.46684C21.1901 2.88675 22.5975 3.76194 23.6672 4.98172C24.7369 6.2015 25.4209 7.71112 25.6327 9.3196C25.8445 10.9281 25.5746 12.5633 24.857 14.0184C24.1395 15.4735 23.0066 16.6832 21.6015 17.4944C20.6683 18.0415 19.636 18.3986 18.5642 18.5452C17.4923 18.6918 16.402 18.6249 15.3561 18.3483C14.3102 18.0718 13.3294 17.5912 12.47 16.934C11.6106 16.2769 10.8897 15.4563 10.3488 14.5194C9.80791 13.5825 9.45761 12.5479 9.31817 11.475C9.17872 10.4023 9.25288 9.31244 9.53633 8.26843C9.81978 7.22436 10.3069 6.24675 10.9698 5.39174C11.6326 4.53674 12.458 3.8213 13.3985 3.2866ZM3.28125 10.3905C3.28125 9.95538 3.4541 9.53807 3.76178 9.23042C4.06946 8.92273 4.48676 8.74991 4.92187 8.74991H8.3579C8.29262 9.11158 8.24859 9.47679 8.22612 9.84363H4.92187C4.77684 9.84363 4.63773 9.90126 4.53518 10.0038C4.43262 10.1064 4.375 10.2455 4.375 10.3905V26.7968C4.375 26.9418 4.43262 27.0809 4.53518 27.1834C4.63773 27.286 4.77684 27.3436 4.92187 27.3436H24.1303L24.7619 28.4374H4.92187C4.48676 28.4374 4.06946 28.2645 3.76178 27.9568C3.4541 27.6492 3.28125 27.2319 3.28125 26.7968V10.3905ZM19.6875 29.5311V30.078C19.6875 30.2231 19.6299 30.3622 19.5273 30.4647C19.4247 30.5673 19.2857 30.6249 19.1406 30.6249H15.8594C15.7143 30.6249 15.5753 30.5673 15.4727 30.4647C15.3701 30.3622 15.3125 30.2231 15.3125 30.078V29.5311H19.6875ZM32.8125 31.1718C32.8125 31.6069 32.6396 32.0242 32.332 32.3318C32.0243 32.6395 31.607 32.8124 31.1719 32.8124H3.82813C3.39301 32.8124 2.97571 32.6395 2.66803 32.3318C2.36035 32.0242 2.1875 31.6069 2.1875 31.1718V29.5311H14.2187V30.078C14.2187 30.5131 14.3916 30.9304 14.6993 31.2381C15.0069 31.5458 15.4242 31.7186 15.8594 31.7186H19.1406C19.5758 31.7186 19.9931 31.5458 20.3007 31.2381C20.6084 30.9304 20.7813 30.5131 20.7813 30.078V29.5311H25.4297C25.684 29.8552 26.0087 30.1173 26.3792 30.2975C26.7497 30.4777 27.1562 30.5713 27.5682 30.5713C27.9802 30.5713 28.3868 30.4777 28.7573 30.2975C29.1278 30.1173 29.4524 29.8552 29.7068 29.5311H32.8125V31.1718Z" fill="#FBF2DE"/>
<path d="M19.6875 13.6719H21.3281C21.4731 13.6719 21.6122 13.6143 21.7148 13.5117C21.8174 13.4092 21.875 13.27 21.875 13.125V7.65629C21.875 7.51122 21.8174 7.37213 21.7148 7.26956C21.6122 7.167 21.4731 7.10938 21.3281 7.10938H19.6875C19.5425 7.10938 19.4033 7.167 19.3008 7.26956C19.1982 7.37213 19.1406 7.51122 19.1406 7.65629V13.125C19.1406 13.27 19.1982 13.4092 19.3008 13.5117C19.4033 13.6143 19.5425 13.6719 19.6875 13.6719ZM20.2343 8.20315H20.7813V12.5782H20.2343V8.20315Z" fill="#FBF2DE"/>
<path d="M16.4063 13.6719H18.0469C18.1919 13.6719 18.331 13.6142 18.4336 13.5117C18.5362 13.4092 18.5937 13.27 18.5937 13.125V9.29686C18.5937 9.15184 18.5362 9.01275 18.4336 8.91019C18.331 8.80762 18.1919 8.75 18.0469 8.75H16.4063C16.2612 8.75 16.1221 8.80762 16.0196 8.91019C15.917 9.01275 15.8594 9.15184 15.8594 9.29686V13.125C15.8594 13.27 15.917 13.4092 16.0196 13.5117C16.1221 13.6142 16.2612 13.6719 16.4063 13.6719ZM16.9532 9.84372H17.5V12.5781H16.9532V9.84372Z" fill="#FBF2DE"/>
<path d="M13.125 13.6718H14.7656C14.9106 13.6718 15.0497 13.6142 15.1523 13.5117C15.2549 13.4091 15.3125 13.27 15.3125 13.125V10.9375C15.3125 10.7925 15.2549 10.6533 15.1523 10.5508C15.0497 10.4482 14.9106 10.3906 14.7656 10.3906H13.125C12.98 10.3906 12.8408 10.4482 12.7383 10.5508C12.6357 10.6533 12.5781 10.7925 12.5781 10.9375V13.125C12.5781 13.27 12.6357 13.4091 12.7383 13.5117C12.8408 13.6142 12.98 13.6718 13.125 13.6718ZM13.6718 11.4843H14.2187V12.5781H13.6718V11.4843Z" fill="#FBF2DE"/>
<path d="M8.20311 22.9687H9.29684C9.44191 22.9687 9.581 22.9112 9.68356 22.8086C9.78613 22.706 9.8437 22.5669 9.8437 22.4219C9.8437 22.2768 9.78613 22.1378 9.68356 22.0352C9.581 21.9326 9.44191 21.875 9.29684 21.875H8.20311C8.05804 21.875 7.91895 21.9326 7.81639 22.0352C7.71382 22.1378 7.65625 22.2768 7.65625 22.4219C7.65625 22.5669 7.71382 22.706 7.81639 22.8086C7.91895 22.9112 8.05804 22.9687 8.20311 22.9687Z" fill="#FBF2DE"/>
<path d="M11.4844 22.9687H19.6875C19.8325 22.9687 19.9717 22.9112 20.0742 22.8086C20.1767 22.706 20.2344 22.5669 20.2344 22.4219C20.2344 22.2768 20.1767 22.1378 20.0742 22.0352C19.9717 21.9326 19.8325 21.875 19.6875 21.875H11.4844C11.3393 21.875 11.2003 21.9326 11.0977 22.0352C10.9951 22.1378 10.9375 22.2768 10.9375 22.4219C10.9375 22.5669 10.9951 22.706 11.0977 22.8086C11.2003 22.9112 11.3393 22.9687 11.4844 22.9687Z" fill="#FBF2DE"/>
<path d="M8.20311 20.7813H9.29684C9.44191 20.7813 9.581 20.7237 9.68356 20.6211C9.78613 20.5185 9.8437 20.3794 9.8437 20.2344C9.8437 20.0893 9.78613 19.9503 9.68356 19.8477C9.581 19.7451 9.44191 19.6875 9.29684 19.6875H8.20311C8.05804 19.6875 7.91895 19.7451 7.81639 19.8477C7.71382 19.9503 7.65625 20.0893 7.65625 20.2344C7.65625 20.3794 7.71382 20.5185 7.81639 20.6211C7.91895 20.7237 8.05804 20.7813 8.20311 20.7813Z" fill="#FBF2DE"/>
<path d="M11.4844 20.7813H13.6719C13.8169 20.7813 13.956 20.7237 14.0586 20.6211C14.1612 20.5185 14.2187 20.3794 14.2187 20.2344C14.2187 20.0893 14.1612 19.9503 14.0586 19.8477C13.956 19.7451 13.8169 19.6875 13.6719 19.6875H11.4844C11.3393 19.6875 11.2003 19.7451 11.0977 19.8477C10.9951 19.9503 10.9375 20.0893 10.9375 20.2344C10.9375 20.3794 10.9951 20.5185 11.0977 20.6211C11.2003 20.7237 11.3393 20.7813 11.4844 20.7813Z" fill="#FBF2DE"/>
<path d="M8.20311 25.1563H9.29684C9.44191 25.1563 9.581 25.0987 9.68356 24.9961C9.78613 24.8935 9.8437 24.7544 9.8437 24.6094C9.8437 24.4643 9.78613 24.3253 9.68356 24.2227C9.581 24.1201 9.44191 24.0625 9.29684 24.0625H8.20311C8.05804 24.0625 7.91895 24.1201 7.81639 24.2227C7.71382 24.3253 7.65625 24.4643 7.65625 24.6094C7.65625 24.7544 7.71382 24.8935 7.81639 24.9961C7.91895 25.0987 8.05804 25.1563 8.20311 25.1563Z" fill="#FBF2DE"/>
<path d="M11.4844 25.1563H19.6875C19.8325 25.1563 19.9717 25.0987 20.0742 24.9961C20.1767 24.8935 20.2344 24.7544 20.2344 24.6094C20.2344 24.4643 20.1767 24.3253 20.0742 24.2227C19.9717 24.1201 19.8325 24.0625 19.6875 24.0625H11.4844C11.3393 24.0625 11.2003 24.1201 11.0977 24.2227C10.9951 24.3253 10.9375 24.4643 10.9375 24.6094C10.9375 24.7544 10.9951 24.8935 11.0977 24.9961C11.2003 25.0987 11.3393 25.1563 11.4844 25.1563Z" fill="#FBF2DE"/>
</g>
<defs>
<clipPath id="clip0_0_319">
<rect width="35" height="35" fill="white"/>
</clipPath>
</defs>
</svg>
