<svg width="35" height="35" viewBox="0 0 35 35" fill="none" xmlns="http://www.w3.org/2000/svg">
<g clip-path="url(#clip0_0_336)">
<g clip-path="url(#clip1_0_336)">
<path d="M25.7304 17.4877C25.4407 17.4877 25.177 17.2972 25.0837 17.0236C24.9918 16.7538 25.082 16.4456 25.3058 16.2687C25.5298 16.0916 25.8482 16.0724 26.0911 16.2234C26.3336 16.3741 26.4594 16.6691 26.3986 16.9483C26.3312 17.2588 26.0486 17.4877 25.7304 17.4877Z" fill="#FBF2DE"/>
<path d="M32.1941 23.7168L26.4143 21.3236V19.9066C26.4143 19.5292 26.1083 19.2231 25.7307 19.2231C25.3533 19.2231 25.0471 19.5292 25.0471 19.9066V33.6328H21.1419V28.1491C21.1419 27.7717 20.8358 27.4656 20.4583 27.4656H14.5416C14.164 27.4656 13.858 27.7717 13.858 28.1491V33.6328H9.95286V4.21066H25.0472V13.7262C25.0472 14.1037 25.3533 14.4097 25.7308 14.4097C26.1083 14.4097 26.4144 14.1037 26.4144 13.7262V3.52707C26.4144 3.14959 26.1083 2.84348 25.7308 2.84348H24.3447V0.683595C24.3447 0.306045 24.0387 0 23.6612 0H11.3389C10.9614 0 10.6553 0.306045 10.6553 0.683595V2.84348H9.26923C8.89168 2.84348 8.58565 3.14959 8.58565 3.52707V21.3237L2.80593 23.717C2.55048 23.8228 2.38388 24.072 2.38388 24.3485V34.3164C2.38388 34.6939 2.68993 35 3.06748 35H31.9326C32.3102 35 32.6162 34.6939 32.6162 34.3164V24.3485C32.6161 24.072 32.4496 23.8227 32.1941 23.7168ZM12.0225 1.36719H22.9775V2.84348H12.0225V1.36719ZM3.751 24.8053L8.58565 22.8034V33.6328H3.751V24.8053ZM15.2252 33.6328V28.8328H19.7747V33.6328H15.2252ZM31.2489 33.6328H26.4143V22.8034L31.2489 24.8053V33.6328Z" fill="#FBF2DE"/>
<path d="M22.5477 25.6583H18.9029C18.5254 25.6583 18.2193 25.3522 18.2193 24.9747V20.5464C18.2193 20.1689 18.5254 19.8628 18.9029 19.8628H22.5477C22.9252 19.8628 23.2313 20.1689 23.2313 20.5464V24.9747C23.2313 25.3522 22.9252 25.6583 22.5477 25.6583ZM19.5864 24.2911H21.8641V21.23H19.5864V24.2911Z" fill="#FBF2DE"/>
<path d="M16.0971 25.6583H12.4524C12.0748 25.6583 11.7687 25.3522 11.7687 24.9747V20.5464C11.7687 20.1689 12.0748 19.8628 12.4524 19.8628H16.0972C16.4748 19.8628 16.7808 20.1689 16.7808 20.5464V24.9747C16.7807 25.3522 16.4747 25.6583 16.0971 25.6583ZM13.1359 24.2911H15.4136V21.23H13.1359V24.2911Z" fill="#FBF2DE"/>
<path d="M22.5477 11.5119H18.9029C18.5254 11.5119 18.2193 11.2058 18.2193 10.8283V6.39988C18.2193 6.02239 18.5254 5.71631 18.9029 5.71631H22.5477C22.9252 5.71631 23.2313 6.02239 23.2313 6.39988V10.8283C23.2313 11.2058 22.9252 11.5119 22.5477 11.5119ZM19.5864 10.1447H21.8641V7.08351H19.5864V10.1447Z" fill="#FBF2DE"/>
<path d="M16.0971 11.5119H12.4524C12.0748 11.5119 11.7687 11.2058 11.7687 10.8283V6.39988C11.7687 6.02239 12.0748 5.71631 12.4524 5.71631H16.0972C16.4748 5.71631 16.7808 6.02239 16.7808 6.39988V10.8283C16.7807 11.2058 16.4747 11.5119 16.0971 11.5119ZM13.1359 10.1447H15.4136V7.08351H13.1359V10.1447Z" fill="#FBF2DE"/>
<path d="M22.5477 18.5851H18.9029C18.5254 18.5851 18.2193 18.2791 18.2193 17.9015V13.4731C18.2193 13.0956 18.5254 12.7896 18.9029 12.7896H22.5477C22.9252 12.7896 23.2313 13.0956 23.2313 13.4731V17.9015C23.2313 18.2791 22.9252 18.5851 22.5477 18.5851ZM19.5864 17.2179H21.8641V14.1567H19.5864V17.2179Z" fill="#FBF2DE"/>
<path d="M16.0971 18.5851H12.4524C12.0748 18.5851 11.7687 18.2791 11.7687 17.9015V13.4731C11.7687 13.0956 12.0748 12.7896 12.4524 12.7896H16.0972C16.4748 12.7896 16.7808 13.0956 16.7808 13.4731V17.9015C16.7807 18.2791 16.4747 18.5851 16.0971 18.5851ZM13.1359 17.2179H15.4136V14.1567H13.1359V17.2179Z" fill="#FBF2DE"/>
</g>
</g>
<defs>
<clipPath id="clip0_0_336">
<rect width="35" height="35" fill="white"/>
</clipPath>
<clipPath id="clip1_0_336">
<rect width="35" height="35" fill="white"/>
</clipPath>
</defs>
</svg>
