<svg width="35" height="38" viewBox="0 0 35 38" fill="none" xmlns="http://www.w3.org/2000/svg">
<g clip-path="url(#clip0_0_349)">
<g clip-path="url(#clip1_0_349)">
<g clip-path="url(#clip2_0_349)">
<path d="M4.96862 13.8813C5.23036 15.1923 6.38899 16.1837 7.77557 16.1837H9.49374C10.2395 16.1837 10.8695 16.6642 11.1066 17.3292H6.63011C6.31339 17.3292 6.05738 17.5857 6.05738 17.9019V20.7655C6.05738 20.9379 6.13527 21.1012 6.26872 21.21L15.221 28.4836V37.5656C15.221 37.777 15.3373 37.9711 15.5235 38.0708C15.6082 38.116 15.701 38.1383 15.7938 38.1383C15.9049 38.1383 16.016 38.1057 16.1116 38.0421L19.5481 35.7512C19.7073 35.6447 19.8029 35.466 19.8029 35.2747V28.4836L28.7552 21.21C28.8887 21.1012 28.9666 20.9379 28.9666 20.7655V17.9019C28.9666 17.5857 28.7106 17.3292 28.3939 17.3292H23.9174C24.1545 16.6642 24.7845 16.1837 25.5302 16.1837H27.2484C28.635 16.1837 29.7936 15.1923 30.0553 13.8813C32.4374 13.7834 34.6939 13.0044 34.6939 11.6019V3.01089C34.6939 1.5069 32.1011 0.719971 29.5393 0.719971C26.9775 0.719971 24.3848 1.5069 24.3848 3.01089V11.6019C24.3848 12.9741 26.5433 13.7473 28.8675 13.8727C28.6361 14.5479 28.0015 15.0382 27.2484 15.0382H25.5302C24.1476 15.0382 22.9907 16.0239 22.7244 17.3292H18.0847V13.8784C20.4461 13.7702 22.6666 12.9936 22.6666 11.6019V3.01089C22.6666 1.5069 20.0738 0.719971 17.512 0.719971C14.9502 0.719971 12.3574 1.5069 12.3574 3.01089V11.6019C12.3574 12.9936 14.5779 13.7696 16.9393 13.8784V17.3292H12.2995C12.0332 16.0239 10.8769 15.0382 9.49374 15.0382H7.77557C7.02243 15.0382 6.38784 14.5479 6.15646 13.8727C8.48061 13.7473 10.6392 12.9741 10.6392 11.6019V3.01089C10.6392 1.5069 8.04647 0.719971 5.48465 0.719971C2.92283 0.719971 0.330078 1.5069 0.330078 3.01089V11.6019C0.330078 13.0044 2.58663 13.7834 4.96862 13.8813ZM29.5393 1.86543C32.1435 1.86543 33.5484 2.67813 33.5484 3.01089C33.5484 3.34365 32.1435 4.15635 29.5393 4.15635C26.9351 4.15635 25.5302 3.34365 25.5302 3.01089C25.5302 2.67813 26.9351 1.86543 29.5393 1.86543ZM25.5302 4.49999C26.5245 5.02862 28.0353 5.30181 29.5393 5.30181C31.0433 5.30181 32.5542 5.02862 33.5484 4.49999V5.87454C33.5484 6.20729 32.1435 7.02 29.5393 7.02C26.9351 7.02 25.5302 6.20729 25.5302 5.87454V4.49999ZM25.5302 7.36364C26.5245 7.89227 28.0353 8.16547 29.5393 8.16547C31.0433 8.16547 32.5542 7.89227 33.5484 7.36364V8.7382C33.5484 9.07097 32.1435 9.88363 29.5393 9.88363C26.9351 9.88363 25.5302 9.07097 25.5302 8.7382V7.36364ZM25.5302 11.6019V10.2273C26.5245 10.7559 28.0353 11.0291 29.5393 11.0291C31.0433 11.0291 32.5542 10.7559 33.5484 10.2273V11.6019C33.5484 11.9346 32.1435 12.7473 29.5393 12.7473C26.9351 12.7473 25.5302 11.9346 25.5302 11.6019ZM17.512 1.86543C20.1162 1.86543 21.5211 2.67813 21.5211 3.01089C21.5211 3.34365 20.1162 4.15635 17.512 4.15635C14.9078 4.15635 13.5029 3.34365 13.5029 3.01089C13.5029 2.67813 14.9078 1.86543 17.512 1.86543ZM13.5029 4.49999C14.4971 5.02862 16.008 5.30181 17.512 5.30181C19.016 5.30181 20.5268 5.02862 21.5211 4.49999V5.87454C21.5211 6.20729 20.1162 7.02 17.512 7.02C14.9078 7.02 13.5029 6.20729 13.5029 5.87454V4.49999ZM13.5029 7.36364C14.4971 7.89227 16.008 8.16547 17.512 8.16547C19.016 8.16547 20.5268 7.89227 21.5211 7.36364V8.7382C21.5211 9.07097 20.1162 9.88363 17.512 9.88363C14.9078 9.88363 13.5029 9.07097 13.5029 8.7382V7.36364ZM13.5029 11.6019V10.2273C14.4971 10.7559 16.008 11.0291 17.512 11.0291C19.016 11.0291 20.5268 10.7559 21.5211 10.2273V11.6019C21.5211 11.9346 20.1162 12.7473 17.512 12.7473C14.9078 12.7473 13.5029 11.9346 13.5029 11.6019ZM27.8211 20.1928H16.9393V21.3382H26.7805L18.8688 27.7666C18.7353 27.8754 18.6575 28.0386 18.6575 28.211V34.9683L16.3665 36.4957V28.211C16.3665 28.0386 16.2886 27.8754 16.1552 27.7666L7.20284 20.4929V18.4746H27.8211V20.1928ZM5.48465 12.7473C2.88044 12.7473 1.47554 11.9346 1.47554 11.6019V10.2273C2.4698 10.7559 3.98066 11.0291 5.48465 11.0291C6.98864 11.0291 8.49954 10.7559 9.49374 10.2273V11.6019C9.49374 11.9346 8.08883 12.7473 5.48465 12.7473ZM5.48465 1.86543C8.08883 1.86543 9.49374 2.67813 9.49374 3.01089C9.49374 3.34365 8.08883 4.15635 5.48465 4.15635C2.88044 4.15635 1.47554 3.34365 1.47554 3.01089C1.47554 2.67813 2.88044 1.86543 5.48465 1.86543ZM1.47554 4.49999C2.4698 5.02862 3.98066 5.30181 5.48465 5.30181C6.98864 5.30181 8.49954 5.02862 9.49374 4.49999V5.87454C9.49374 6.20729 8.08883 7.02 5.48465 7.02C2.88044 7.02 1.47554 6.20729 1.47554 5.87454V4.49999ZM1.47554 7.36364C2.4698 7.89227 3.98066 8.16547 5.48465 8.16547C6.98864 8.16547 8.49954 7.89227 9.49374 7.36364V8.7382C9.49374 9.07097 8.08883 9.88363 5.48465 9.88363C2.88044 9.88363 1.47554 9.07097 1.47554 8.7382V7.36364Z" fill="white"/>
</g>
</g>
</g>
<defs>
<clipPath id="clip0_0_349">
<rect width="35" height="38" fill="white"/>
</clipPath>
<clipPath id="clip1_0_349">
<rect width="35" height="38" fill="white"/>
</clipPath>
<clipPath id="clip2_0_349">
<rect width="34.898" height="38" fill="white" transform="translate(0.0510254)"/>
</clipPath>
</defs>
</svg>
