<svg width="35" height="35" viewBox="0 0 35 35" fill="none" xmlns="http://www.w3.org/2000/svg">
<g clip-path="url(#clip0_0_356)">
<g clip-path="url(#clip1_0_356)">
<g clip-path="url(#clip2_0_356)">
<mask id="mask0_0_356" style="mask-type:luminance" maskUnits="userSpaceOnUse" x="0" y="0" width="35" height="35">
<path d="M35 0H0V35H35V0Z" fill="white"/>
</mask>
<g mask="url(#mask0_0_356)">
<path d="M35.0001 9.43351C35.0001 9.34909 34.9848 9.26426 34.953 9.18347L33.4962 5.47579V2.32422C33.4962 1.04261 32.4536 0 31.172 0H3.82853C2.54693 0 1.50431 1.04261 1.50431 2.32422V5.476L0.0479834 9.18359C0.0162646 9.26438 0.000952147 9.34915 0.000952147 9.43357C0.000815428 9.43357 0.00108887 9.43357 0.000952147 9.43357L0.000610352 11.1397C0.000610352 12.3062 0.583579 13.2937 1.50431 13.872V34.3162C1.50431 34.6937 1.81043 34.9998 2.1879 34.9998H26.2893C26.6668 34.9998 26.973 34.6937 26.973 34.3162C26.973 33.9387 26.667 33.6326 26.2894 33.6326H2.87157V14.3733C3.07049 14.4039 3.27578 14.4208 3.487 14.4208C4.66149 14.4208 5.665 13.9281 6.28975 13.1391C6.91447 13.9281 7.91796 14.4208 9.09248 14.4208C10.2669 14.4208 11.2705 13.9281 11.8952 13.1391C12.5199 13.9281 13.5235 14.4208 14.6979 14.4208C15.8724 14.4208 16.8759 13.9281 17.5007 13.1391C18.1254 13.9281 19.1289 14.4208 20.3034 14.4208C21.4779 14.4208 22.4814 13.9281 23.1061 13.1391C23.7308 13.9281 24.7344 14.4208 25.9089 14.4208C27.0834 14.4208 28.0869 13.9281 28.7116 13.1391C29.3364 13.9281 30.3399 14.4208 31.5143 14.4208C31.7254 14.4208 31.9305 14.404 32.1294 14.3733V19.8325C32.1294 20.2101 32.4355 20.5162 32.8129 20.5162C33.1905 20.5162 33.4966 20.2101 33.4966 19.8325V13.8721C34.4175 13.2939 35.0007 12.3062 35.0007 11.1396V9.43345C35.0003 9.43351 35.0002 9.43351 35.0001 9.43351ZM2.87157 2.32422C2.87157 1.79648 3.30086 1.36719 3.8286 1.36719H31.1721C31.6999 1.36719 32.1292 1.79648 32.1292 2.32422V4.92188H2.87157V2.32422ZM5.60615 11.1396C5.60615 12.2488 4.71495 13.0537 3.487 13.0537C2.25907 13.0537 1.36787 12.2488 1.36787 11.1396V10.1171H5.60615V11.1396ZM11.2115 11.1396C11.2115 12.2488 10.3203 13.0537 9.09242 13.0537C7.86445 13.0537 6.97326 12.2488 6.97326 11.1396V10.1171H11.2115V11.1396ZM16.817 11.1396C16.817 12.2488 15.9258 13.0537 14.6979 13.0537C13.4699 13.0537 12.5787 12.2488 12.5787 11.1396V10.1171H16.817V11.1396ZM22.4224 11.1396C22.4224 12.2488 21.5312 13.0537 20.3033 13.0537C19.0753 13.0537 18.1841 12.2488 18.1841 11.1396V10.1171H22.4224V11.1396ZM28.0278 11.1396C28.0278 12.2488 27.1366 13.0537 25.9087 13.0537C24.6807 13.0537 23.7895 12.2488 23.7895 11.1396V10.1171H28.0278V11.1396ZM1.68724 8.74994L2.65384 6.28897H32.3468L33.3138 8.74994H1.68724ZM33.6333 11.1396C33.6333 12.2488 32.742 13.0537 31.5141 13.0537C30.2862 13.0537 29.395 12.2488 29.395 11.1396V10.1171H33.6333V11.1396Z" fill="#FBF2DE"/>
<path d="M34.7996 30.7395L31.8195 27.7593L33.0009 26.5778C33.1736 26.4051 33.241 26.1533 33.1778 25.9175C33.1146 25.6816 32.9304 25.4974 32.6945 25.4341L24.4982 23.238C24.2622 23.1746 24.0106 23.2422 23.838 23.4149C23.6653 23.5876 23.5978 23.8393 23.661 24.0752L25.8572 32.2714C25.9205 32.5073 26.1047 32.6915 26.3406 32.7548C26.5766 32.8181 26.8282 32.7504 27.0008 32.5778L27.7592 31.8196L30.7394 34.7997C30.8728 34.9331 31.0478 34.9999 31.2227 34.9999C31.3977 34.9999 31.5726 34.9331 31.7061 34.7997L34.7997 31.7061C35.0666 31.4392 35.0666 31.0064 34.7996 30.7395ZM27.2758 30.3695L26.8714 30.7741L25.2881 24.8652L31.197 26.4485L30.3693 27.276L27.2758 30.3695ZM31.2227 33.3496L28.726 30.8528L30.8528 28.7261L33.3495 31.2228L31.2227 33.3496Z" fill="#FBF2DE"/>
<path d="M23.2342 21.5922L20.9911 19.3491C20.7241 19.0822 20.2914 19.0822 20.0243 19.3491C19.7574 19.616 19.7574 20.0489 20.0243 20.3159L22.2673 22.5589C22.4009 22.6924 22.5758 22.7592 22.7508 22.7592C22.9256 22.7592 23.1006 22.6924 23.2342 22.5589C23.5011 22.2919 23.5011 21.8591 23.2342 21.5922Z" fill="#FBF2DE"/>
<path d="M24.8823 18.8445C24.5048 18.8445 24.1987 19.1505 24.1987 19.5281V21.0104C24.1987 21.3879 24.5048 21.694 24.8823 21.694C25.2598 21.694 25.5659 21.3879 25.5659 21.0104V19.5281C25.5659 19.1506 25.2598 18.8445 24.8823 18.8445Z" fill="#FBF2DE"/>
<path d="M21.6851 23.5212H20.2027C19.8253 23.5212 19.5192 23.8273 19.5192 24.2048C19.5192 24.5823 19.8253 24.8884 20.2027 24.8884H21.6851C22.0625 24.8884 22.3686 24.5823 22.3686 24.2048C22.3686 23.8273 22.0625 23.5212 21.6851 23.5212Z" fill="#FBF2DE"/>
<path d="M16.2006 24.0987L17.1689 19.3422C17.2099 19.1412 17.1584 18.9323 17.0285 18.7734C16.8987 18.6145 16.7043 18.5223 16.4991 18.5223H7.87512L7.57988 17.3348C7.50424 17.0301 7.23059 16.8162 6.91654 16.8162H5.19532C4.81783 16.8162 4.51172 17.1223 4.51172 17.4997C4.51172 17.8772 4.81783 18.1834 5.19532 18.1834H6.38205L8.42866 26.4147C8.50429 26.7194 8.77795 26.9334 9.092 26.9334H15.8316C16.209 26.9334 16.5151 26.6273 16.5151 26.2497C16.5151 25.8723 16.209 25.5662 15.8316 25.5662H9.62643L9.39762 24.6459H15.5308C15.8558 24.6459 16.1358 24.4171 16.2006 24.0987ZM9.05759 23.2787L8.21498 19.8894H15.6622L14.9723 23.2787H9.05759Z" fill="#FBF2DE"/>
<path d="M10.1221 27.2757C9.99494 27.1486 9.81857 27.0754 9.63883 27.0754C9.45902 27.0754 9.28266 27.1485 9.15553 27.2757C9.02834 27.4029 8.9552 27.5793 8.9552 27.759C8.9552 27.9388 9.02828 28.1152 9.15553 28.2422C9.28266 28.3694 9.45902 28.4426 9.63883 28.4426C9.81857 28.4426 9.99494 28.3695 10.1221 28.2422C10.2492 28.1152 10.3224 27.9388 10.3224 27.759C10.3224 27.5793 10.2493 27.4029 10.1221 27.2757Z" fill="#FBF2DE"/>
<path d="M15.1806 27.2757C15.0535 27.1486 14.8772 27.0754 14.6974 27.0754C14.5176 27.0754 14.3412 27.1485 14.2141 27.2757C14.0869 27.4029 14.0138 27.5793 14.0138 27.759C14.0138 27.9388 14.0869 28.1152 14.2141 28.2422C14.3412 28.3694 14.5176 28.4426 14.6974 28.4426C14.8772 28.4426 15.0535 28.3695 15.1806 28.2422C15.3077 28.1152 15.381 27.9388 15.381 27.759C15.381 27.5793 15.3078 27.4029 15.1806 27.2757Z" fill="#FBF2DE"/>
<path d="M16.499 29.9412H7.92978C7.55232 29.9412 7.24622 30.2473 7.24622 30.6247C7.24622 31.0022 7.55226 31.3084 7.92978 31.3084H16.499C16.8764 31.3084 17.1825 31.0022 17.1825 30.6247C17.1825 30.2473 16.8764 29.9412 16.499 29.9412Z" fill="#FBF2DE"/>
<path d="M5.62197 30.1414C5.49482 30.0143 5.31846 29.9412 5.13867 29.9412C4.95827 29.9412 4.78259 30.0142 4.65537 30.1414C4.52829 30.2686 4.45508 30.4449 4.45508 30.6247C4.45508 30.8045 4.52822 30.9809 4.65537 31.108C4.78252 31.2351 4.95889 31.3084 5.13867 31.3084C5.31846 31.3084 5.49482 31.2352 5.62197 31.108C5.74905 30.9809 5.82227 30.8045 5.82227 30.6247C5.82227 30.4449 5.74912 30.2685 5.62197 30.1414Z" fill="#FBF2DE"/>
</g>
</g>
</g>
</g>
<defs>
<clipPath id="clip0_0_356">
<rect width="35" height="35" fill="white"/>
</clipPath>
<clipPath id="clip1_0_356">
<rect width="35" height="35" fill="white"/>
</clipPath>
<clipPath id="clip2_0_356">
<rect width="35" height="35" fill="white"/>
</clipPath>
</defs>
</svg>
