<svg width="35" height="35" viewBox="0 0 35 35" fill="none" xmlns="http://www.w3.org/2000/svg">
<g clip-path="url(#clip0_0_377)">
<path d="M8.20312 18.0469H9.84379V19.1406H8.20312V18.0469Z" fill="#FBF2DE"/>
<path d="M12.0312 20.7812H13.6719V21.875H12.0312V20.7812Z" fill="#FBF2DE"/>
<path d="M8.20312 20.7812H10.9375V21.875H8.20312V20.7812Z" fill="#FBF2DE"/>
<path d="M3.82812 20.7812H7.10939V21.875H3.82812V20.7812Z" fill="#FBF2DE"/>
<path d="M7.10938 23.5156H13.6719V24.6094H7.10938V23.5156Z" fill="#FBF2DE"/>
<path d="M3.82812 23.5156H6.01562V24.6094H3.82812V23.5156Z" fill="#FBF2DE"/>
<path d="M10.3906 26.25H13.6719V27.3438H10.3906V26.25Z" fill="#FBF2DE"/>
<path d="M3.82812 26.25H9.29689V27.3438H3.82812V26.25Z" fill="#FBF2DE"/>
<path d="M7.10938 28.9844H10.3906V30.0781H7.10938V28.9844Z" fill="#FBF2DE"/>
<path d="M3.82812 28.9844H6.01562V30.0781H3.82812V28.9844Z" fill="#FBF2DE"/>
<path d="M32.8125 16.4063C32.8125 16.2612 32.7549 16.1221 32.6523 16.0195C32.5498 15.917 32.4107 15.8594 32.2656 15.8594H28.9844C28.8393 15.8594 28.7003 15.917 28.5977 16.0195C28.4951 16.1221 28.4375 16.2612 28.4375 16.4063V19.1406H25.7031C25.5581 19.1406 25.419 19.1982 25.3165 19.3008C25.2139 19.4033 25.1562 19.5425 25.1562 19.6875V22.4219H22.4219C22.2768 22.4219 22.1378 22.4795 22.0352 22.582C21.9326 22.6846 21.875 22.8237 21.875 22.9688V25.7031H19.1406C18.9956 25.7031 18.8565 25.7607 18.754 25.8633C18.6514 25.9658 18.5937 26.105 18.5937 26.25V29.5313H14.6716C14.5426 29.1664 14.2887 28.8588 13.9549 28.663C13.6211 28.4672 13.2288 28.3957 12.8473 28.4611C12.4659 28.5266 12.1199 28.7247 11.8704 29.0206C11.621 29.3165 11.4842 29.6911 11.4842 30.0781C11.4842 30.4651 11.621 30.8397 11.8704 31.1356C12.1199 31.4315 12.4659 31.6297 12.8473 31.6951C13.2288 31.7606 13.6211 31.689 13.9549 31.4932C14.2887 31.2974 14.5426 30.9899 14.6716 30.625H15.3125V32.2656C15.3123 32.4106 15.2547 32.5496 15.1522 32.6521C15.0496 32.7547 14.9106 32.8123 14.7656 32.8125H2.73438C2.58939 32.8123 2.45039 32.7547 2.34787 32.6521C2.24534 32.5496 2.18767 32.4106 2.18751 32.2656V19.6875H4.92188C5.35684 19.687 5.77388 19.514 6.08144 19.2064C6.389 18.8988 6.56202 18.4819 6.56252 18.0469V15.3125H14.7656C14.9106 15.3126 15.0496 15.3703 15.1522 15.4728C15.2547 15.5754 15.3123 15.7144 15.3125 15.8594V16.4063H16.4062V15.8594C16.4057 15.4244 16.2328 15.0074 15.9252 14.6998C15.6176 14.3922 15.2006 14.2192 14.7656 14.2188H6.46866C6.25309 14.2182 6.03959 14.2603 5.84048 14.3428C5.64133 14.4253 5.46051 14.5465 5.30853 14.6993L1.57428 18.4335C1.42145 18.5856 1.30029 18.7663 1.21781 18.9655C1.13533 19.1646 1.09316 19.3781 1.09376 19.5937V32.2656C1.09425 32.7006 1.26727 33.1176 1.57483 33.4252C1.8824 33.7327 2.29941 33.9058 2.73438 33.9063H14.7656C15.2006 33.9058 15.6176 33.7327 15.9252 33.4252C16.2328 33.1176 16.4057 32.7006 16.4062 32.2656V30.625H33.9062V29.5313H32.8125V16.4063ZM5.46874 16.0859V18.0469C5.46859 18.1918 5.41092 18.3309 5.30838 18.4334C5.2059 18.5359 5.06688 18.5936 4.92188 18.5938H2.96093L5.46874 16.0859ZM13.125 30.625C13.0169 30.625 12.9111 30.5929 12.8212 30.5328C12.7312 30.4728 12.6611 30.3873 12.6198 30.2874C12.5784 30.1875 12.5675 30.0775 12.5886 29.9714C12.6097 29.8653 12.6618 29.7679 12.7383 29.6914C12.8148 29.6149 12.9123 29.5629 13.0183 29.5418C13.1244 29.5207 13.2344 29.5315 13.3343 29.5729C13.4342 29.6143 13.5196 29.6844 13.5797 29.7743C13.6398 29.8642 13.6719 29.9699 13.6719 30.0781C13.6717 30.2231 13.614 30.3621 13.5115 30.4646C13.409 30.5672 13.27 30.6248 13.125 30.625ZM19.6875 26.7969H21.875V29.5313H19.6875V26.7969ZM22.9687 23.5156H25.1562V29.5313H22.9687V23.5156ZM26.25 20.2344H28.4375V29.5313H26.25V20.2344ZM29.5312 29.5313V16.9531H31.7187V29.5313H29.5312Z" fill="#FBF2DE"/>
<path d="M2.73437 14.7656C3.01152 14.7657 3.28416 14.6956 3.52685 14.5617C3.76954 14.4279 3.97436 14.2347 4.12219 14.0003C4.27001 13.7658 4.35603 13.4978 4.3722 13.2211C4.38838 12.9444 4.33419 12.6682 4.21469 12.4181L5.8556 10.7772C6.06313 10.8764 6.28925 10.9308 6.51922 10.9369C6.74918 10.9431 6.97782 10.9007 7.19033 10.8127C7.40289 10.7246 7.59451 10.5929 7.7528 10.4259C7.91104 10.259 8.03245 10.0607 8.10906 9.84376H10.4847C10.6059 10.1866 10.8375 10.4795 11.1433 10.6763C11.449 10.8732 11.8115 10.9629 12.1737 10.9313C12.536 10.8997 12.8774 10.7487 13.1445 10.5019C13.4116 10.2551 13.5891 9.92658 13.6491 9.56795L16.7375 6.92072C17.0801 7.1006 17.4753 7.15354 17.8533 7.07023C18.2312 6.98692 18.5674 6.77273 18.8027 6.46542C19.038 6.15816 19.1571 5.77765 19.1389 5.39107C19.1207 5.00449 18.9665 4.63681 18.7035 4.35295C18.4405 4.06908 18.0856 3.88733 17.7015 3.83981C17.3175 3.79229 16.929 3.88206 16.6047 4.09325C16.2804 4.30445 16.0412 4.62347 15.9294 4.99395C15.8175 5.36445 15.8403 5.76252 15.9935 6.11784L13.3772 8.3604C13.2051 8.11254 12.9678 7.91699 12.6916 7.79538C12.4154 7.67371 12.1109 7.63063 11.8119 7.6709C11.5127 7.71123 11.2306 7.83328 10.9964 8.02366C10.7623 8.21404 10.5852 8.4654 10.4847 8.74999H8.10906C8.03487 8.53999 7.91863 8.34724 7.76753 8.18358C7.61639 8.01992 7.43356 7.88879 7.23006 7.79809C7.02662 7.70743 6.80681 7.65912 6.58409 7.65616C6.36137 7.65321 6.14033 7.69565 5.93457 7.78088C5.72876 7.86616 5.54247 7.99241 5.38704 8.15198C5.23166 8.3116 5.11039 8.50114 5.03063 8.70912C4.95087 8.91715 4.91431 9.13918 4.92318 9.36175C4.93204 9.58432 4.98617 9.8028 5.0822 10.0038L3.44127 11.6447C3.21907 11.5386 2.97583 11.4838 2.7296 11.4846C2.48336 11.4853 2.24044 11.5414 2.01885 11.6488C1.79726 11.7561 1.60269 11.9121 1.44956 12.1049C1.29643 12.2977 1.18867 12.5225 1.13428 12.7627C1.07988 13.0028 1.08025 13.2522 1.13534 13.4921C1.19043 13.7322 1.29885 13.9567 1.45254 14.1491C1.60623 14.3414 1.80126 14.4967 2.02316 14.6035C2.24506 14.7102 2.48814 14.7656 2.73437 14.7656ZM17.5 4.92187C17.6082 4.92187 17.7139 4.95397 17.8038 5.01406C17.8938 5.07415 17.9639 5.15953 18.0052 5.25945C18.0466 5.35937 18.0575 5.46935 18.0364 5.57544C18.0153 5.68152 17.9632 5.77898 17.8867 5.85544C17.8102 5.93195 17.7128 5.984 17.6067 6.0051C17.5006 6.0262 17.3907 6.0154 17.2907 5.97399C17.1908 5.93259 17.1054 5.86249 17.0453 5.77257C16.9852 5.68266 16.9531 5.57692 16.9531 5.46876C16.9533 5.32378 17.011 5.18477 17.1135 5.08223C17.216 4.9797 17.355 4.92204 17.5 4.92187ZM12.0313 8.74999C12.1394 8.74999 12.2452 8.78208 12.3351 8.84217C12.425 8.90226 12.4951 8.98769 12.5365 9.08761C12.5779 9.18754 12.5887 9.29747 12.5676 9.40355C12.5465 9.50964 12.4944 9.60709 12.418 9.6836C12.3415 9.76006 12.244 9.81216 12.1379 9.83326C12.0319 9.85436 11.9219 9.84352 11.822 9.80211C11.722 9.76075 11.6366 9.69065 11.5765 9.60069C11.5164 9.51077 11.4844 9.40503 11.4844 9.29688C11.4845 9.1519 11.5422 9.01288 11.6447 8.91035C11.7473 8.80786 11.8862 8.75018 12.0313 8.74999ZM6.5625 8.74999C6.67065 8.74999 6.77639 8.78208 6.86631 8.84217C6.95627 8.90226 7.02637 8.98769 7.06773 9.08761C7.10914 9.18754 7.11999 9.29747 7.09889 9.40355C7.07779 9.50964 7.02568 9.60709 6.94918 9.6836C6.87272 9.76006 6.77526 9.81216 6.66918 9.83326C6.56309 9.85436 6.45316 9.84352 6.35324 9.80211C6.25327 9.76075 6.16789 9.69065 6.1078 9.60069C6.0477 9.51077 6.01561 9.40503 6.01561 9.29688C6.01581 9.1519 6.07349 9.01288 6.17597 8.91035C6.27851 8.80786 6.41752 8.75018 6.5625 8.74999ZM2.73437 12.5781C2.84254 12.5781 2.94827 12.6102 3.0382 12.6703C3.12814 12.7304 3.19823 12.8158 3.23962 12.9157C3.28101 13.0157 3.29184 13.1256 3.27074 13.2317C3.24964 13.3378 3.19756 13.4352 3.12107 13.5117C3.04459 13.5882 2.94715 13.6403 2.84106 13.6614C2.73498 13.6825 2.62502 13.6716 2.52509 13.6303C2.42516 13.5889 2.33975 13.5188 2.27966 13.4288C2.21957 13.3389 2.1875 13.2331 2.1875 13.125C2.18767 12.98 2.24533 12.841 2.34786 12.7385C2.45038 12.636 2.58938 12.5783 2.73437 12.5781Z" fill="#FBF2DE"/>
<path d="M22.5289 13.885L18.9141 17.4998H14.1247C13.9957 17.135 13.7418 16.8275 13.408 16.6316C13.0742 16.4358 12.6819 16.3643 12.3004 16.4297C11.919 16.4951 11.573 16.6934 11.3235 16.9892C11.0741 17.2852 10.9373 17.6597 10.9373 18.0467C10.9373 18.4338 11.0741 18.8083 11.3235 19.1042C11.573 19.4001 11.919 19.5983 12.3004 19.6637C12.6819 19.7292 13.0742 19.6577 13.408 19.4618C13.7418 19.266 13.9957 18.9585 14.1247 18.5936H15.3125V28.4373H16.4063V18.5936H19.1406C19.2857 18.5936 19.4248 18.536 19.5273 18.4334L23.4743 14.4865C25.1015 15.3501 26.9997 15.5503 28.7713 15.0451C30.5428 14.5399 32.0499 13.3686 32.9769 11.7767C33.9038 10.1847 34.1785 8.29578 33.7434 6.50575C33.3083 4.71575 32.1971 3.16366 30.6428 2.17486C29.0886 1.18605 27.2119 0.837283 25.4062 1.20168C23.6004 1.56607 22.0058 2.61533 20.9567 4.1295C19.9075 5.64367 19.4852 7.50523 19.7783 9.3239C20.0714 11.1426 21.0571 12.7772 22.5289 13.885ZM12.5781 18.5936C12.47 18.5936 12.3642 18.5615 12.2743 18.5014C12.1844 18.4413 12.1143 18.3559 12.0729 18.256C12.0315 18.1561 12.0207 18.0461 12.0418 17.94C12.0629 17.8339 12.1149 17.7365 12.1914 17.66C12.2679 17.5836 12.3654 17.5314 12.4714 17.5103C12.5775 17.4892 12.6875 17.5001 12.7874 17.5415C12.8873 17.5829 12.9728 17.653 13.0329 17.7429C13.093 17.8328 13.125 17.9386 13.125 18.0467C13.1249 18.1917 13.0672 18.3307 12.9646 18.4332C12.8621 18.5357 12.7231 18.5934 12.5781 18.5936ZM31.1835 12.3148L28.0147 8.74985H32.7874C32.666 10.0839 32.1014 11.339 31.1835 12.3148ZM32.7874 7.65607H27.3438V2.21247C28.7437 2.34223 30.0542 2.95744 31.0483 3.95157C32.0424 4.94569 32.6576 6.25617 32.7874 7.65607ZM26.25 2.21247V8.20296C26.25 8.3369 26.2993 8.4661 26.3886 8.56587L26.3881 8.56632L30.3664 13.0419C29.6198 13.5928 28.7558 13.9635 27.842 14.1249C26.9282 14.2863 25.9894 14.2341 25.0992 13.9723C24.209 13.7106 23.3913 13.2465 22.7104 12.6161C22.0293 11.9858 21.5034 11.2065 21.1737 10.3391C20.844 9.47178 20.7195 8.53985 20.8099 7.61634C20.9002 6.69283 21.2031 5.80275 21.6947 5.01574C22.1863 4.22876 22.8533 3.56618 23.6435 3.07986C24.4338 2.59353 25.3259 2.29666 26.25 2.21247Z" fill="#FBF2DE"/>
</g>
<defs>
<clipPath id="clip0_0_377">
<rect width="35" height="35" fill="white"/>
</clipPath>
</defs>
</svg>
