<svg width="35" height="35" viewBox="0 0 35 35" fill="none" xmlns="http://www.w3.org/2000/svg">
<g clip-path="url(#clip0_0_395)">
<g clip-path="url(#clip1_0_395)">
<g clip-path="url(#clip2_0_395)">
<path d="M31.5091 18.3539C31.8184 17.8953 31.9991 17.3433 31.9991 16.7498V16.2014C31.9991 14.6153 30.7087 13.3248 29.1225 13.3248C28.3311 13.3248 27.6134 13.6462 27.0927 14.1652C25.7456 10.1588 21.9545 7.26489 17.5 7.26489C13.0455 7.26489 9.25436 10.1588 7.90728 14.1652C7.38662 13.6462 6.66891 13.3248 5.87749 13.3248C4.29133 13.3248 3.00084 14.6153 3.00084 16.2014V16.7498C3.00084 17.3433 3.18158 17.8953 3.49084 18.3539C1.4996 18.7735 0 20.5436 0 22.6578V24.0342C0 24.4117 0.306113 24.7178 0.683592 24.7178H4.23828C4.61576 24.7178 4.92188 24.4117 4.92188 24.0342C4.92188 23.6567 4.61576 23.3506 4.23828 23.3506H1.36719V22.6578C1.36719 20.9862 2.72713 19.6263 4.39872 19.6263H7.63413C7.89647 20.7803 8.35633 21.8601 8.97677 22.8277L1.17701 30.6274C0.178281 31.6262 0.178281 33.2515 1.17708 34.2503C1.67652 34.7498 2.33242 34.9994 2.98847 34.9994C3.64451 34.9994 4.30055 34.7497 4.79999 34.2503L9.1 29.9502C9.36694 29.6833 9.36694 29.2504 9.1 28.9834C8.83301 28.7165 8.40026 28.7165 8.13322 28.9834L3.83325 33.2835C3.36738 33.7493 2.60955 33.7492 2.14375 33.2836C1.67802 32.8178 1.67802 32.0599 2.14375 31.5941L9.80047 23.9374C11.6576 26.1155 14.4201 27.4993 17.5 27.4993C22.3076 27.4993 26.3423 24.1285 27.3659 19.6263H30.6013C32.2729 19.6263 33.6328 20.9862 33.6328 22.6578V23.3506H27.207C26.8295 23.3506 26.5234 23.6567 26.5234 24.0342C26.5234 24.4117 26.8295 24.7178 27.207 24.7178H34.3164C34.6939 24.7178 35 24.4117 35 24.0342V22.6578C35 20.5436 33.5004 18.7735 31.5091 18.3539ZM7.38693 16.7498C7.38693 17.5821 6.70981 18.2592 5.87749 18.2592C5.04512 18.2592 4.36803 17.5821 4.36803 16.7498V16.2015C4.36803 15.3692 5.04512 14.6921 5.87749 14.6921C6.70981 14.6921 7.38693 15.3692 7.38693 16.2015V16.7498ZM17.5 26.1321C12.6753 26.1321 8.75 22.2068 8.75 17.3821C8.75 12.5574 12.6753 8.63209 17.5 8.63209C22.3247 8.63209 26.25 12.5574 26.25 17.3821C26.25 22.2068 22.3247 26.1321 17.5 26.1321ZM30.6319 16.7498C30.6319 17.5821 29.9548 18.2592 29.1225 18.2592C28.2901 18.2592 27.613 17.5821 27.613 16.7498V16.2015C27.613 15.3692 28.2901 14.6921 29.1225 14.6921C29.9548 14.6921 30.6319 15.3692 30.6319 16.2015V16.7498Z" fill="#FBF2DE"/>
<path d="M17.5 9.99927C13.4291 9.99927 10.1172 13.3112 10.1172 17.3821C10.1172 19.4951 11.0097 21.4033 12.4372 22.7503C12.4616 22.7767 12.4877 22.8016 12.5165 22.8242C13.8307 24.0287 15.5809 24.7649 17.5 24.7649C19.419 24.7649 21.1692 24.0287 22.4835 22.8242C22.5123 22.8017 22.5384 22.7767 22.5628 22.7503C23.9903 21.4033 24.8828 19.4951 24.8828 17.3821C24.8828 13.3112 21.5709 9.99927 17.5 9.99927ZM17.5 23.3977C16.0943 23.3977 14.7999 22.913 13.7746 22.102C14.5009 20.7277 15.9164 19.8631 17.5 19.8631C19.0836 19.8631 20.4991 20.7277 21.2254 22.102C20.2001 22.913 18.9057 23.3977 17.5 23.3977ZM16.0595 17.0553V16.5243C16.0595 15.7299 16.7056 15.0837 17.5 15.0837C18.2943 15.0837 18.9405 15.7299 18.9405 16.5243V17.0553C18.9405 17.8497 18.2943 18.4959 17.5 18.4959C16.7056 18.4959 16.0595 17.8497 16.0595 17.0553ZM22.2254 21.1007C21.5991 20.1016 20.6825 19.3396 19.6097 18.905C20.0437 18.4106 20.3077 17.7635 20.3077 17.0554V16.5243C20.3077 14.9762 19.0481 13.7166 17.5 13.7166C15.9518 13.7166 14.6923 14.9762 14.6923 16.5243V17.0554C14.6923 17.7635 14.9563 18.4106 15.3903 18.905C14.3175 19.3396 13.401 20.1016 12.7746 21.1007C11.9669 20.0766 11.4844 18.7847 11.4844 17.3821C11.4844 14.0651 14.183 11.3665 17.5 11.3665C20.817 11.3665 23.5156 14.0651 23.5156 17.3821C23.5156 18.7847 23.0331 20.0766 22.2254 21.1007Z" fill="#FBF2DE"/>
<path d="M10.9286 27.1551C10.8015 27.028 10.6251 26.9548 10.4453 26.9548C10.2656 26.9548 10.0892 27.028 9.96205 27.1551C9.83496 27.2823 9.76172 27.4587 9.76172 27.6384C9.76172 27.8182 9.8349 27.9946 9.96205 28.1217C10.0892 28.2488 10.2656 28.322 10.4453 28.322C10.6251 28.322 10.8015 28.2489 10.9286 28.1217C11.0557 27.9946 11.1289 27.8182 11.1289 27.6384C11.1289 27.4587 11.0558 27.2823 10.9286 27.1551Z" fill="#FBF2DE"/>
<path d="M17.5139 0.000732422C17.1364 0.000732422 16.8303 0.306846 16.8303 0.684327V3.01019C16.8303 3.38773 17.1364 3.69378 17.5139 3.69378C17.8914 3.69378 18.1975 3.38766 18.1975 3.01019V0.684327C18.1975 0.306846 17.8914 0.000732422 17.5139 0.000732422Z" fill="#FBF2DE"/>
<path d="M17.9969 4.7811C17.8698 4.65396 17.6941 4.58081 17.5137 4.58081C17.3338 4.58081 17.1575 4.65389 17.0304 4.7811C16.9032 4.90832 16.8301 5.08462 16.8301 5.26439C16.8301 5.44419 16.9031 5.62055 17.0304 5.74765C17.1575 5.8748 17.3338 5.94798 17.5137 5.94798C17.6941 5.94798 17.8698 5.87485 17.9969 5.74765C18.124 5.62055 18.1973 5.44419 18.1973 5.26439C18.1973 5.08462 18.1241 4.90825 17.9969 4.7811Z" fill="#FBF2DE"/>
<path d="M23.3092 2.68209C23.0422 2.41522 22.6094 2.41522 22.3423 2.68209L21.1409 3.88358C20.8739 4.15052 20.8739 4.58337 21.1409 4.85038C21.2745 4.98382 21.4493 5.05061 21.6243 5.05061C21.7993 5.05061 21.9741 4.98382 22.1077 4.85038L23.3092 3.6489C23.5761 3.38195 23.5761 2.9491 23.3092 2.68209Z" fill="#FBF2DE"/>
<path d="M13.8706 3.89195L12.6576 2.67891C12.3906 2.41204 11.9579 2.41204 11.6908 2.67891C11.4239 2.94586 11.4239 3.37871 11.6908 3.64572L12.9039 4.85876C13.0374 4.9922 13.2123 5.05899 13.3873 5.05899C13.5622 5.05899 13.7371 4.9922 13.8706 4.85876C14.1376 4.59182 14.1376 4.15896 13.8706 3.89195Z" fill="#FBF2DE"/>
</g>
</g>
</g>
<defs>
<clipPath id="clip0_0_395">
<rect width="35" height="35" fill="white"/>
</clipPath>
<clipPath id="clip1_0_395">
<rect width="35" height="35" fill="white"/>
</clipPath>
<clipPath id="clip2_0_395">
<rect width="35" height="35" fill="white"/>
</clipPath>
</defs>
</svg>
